<svg width="277" height="267" viewBox="0 0 277 267" fill="none" xmlns="http://www.w3.org/2000/svg">
<g filter="url(#filter0_d_1215_583)">
<path d="M250.636 105.688C232.191 79.4082 208.226 102.615 168.283 55.8659C149.693 34.1083 121.463 35.7129 110.546 51.2751C102.585 62.6219 116.076 72.5993 101.24 93.7456C86.4051 114.892 55.9606 75.1531 55.6574 96.6555C55.3422 119.01 35.2739 125.71 35.2739 125.71C35.2739 125.71 4.53115 131.562 8.23317 139.063C21.9836 166.924 54.9173 159.794 67.5669 182.998C80.2166 206.202 98.5515 222.437 116.291 220.516C134.031 218.595 148.959 212.65 160.631 220.838C179.735 234.241 192.529 220.641 198.801 211.701C206.761 200.356 190.556 189.905 200.582 177.036C210.608 164.167 240.255 175.697 239.327 153.936C238.255 128.813 263.916 124.61 250.636 105.688Z" fill="#0EA9FF"/>
</g>
<g filter="url(#filter1_d_1215_583)">
<path d="M131.2 227.519C149.243 229.895 160.5 219.668 173.509 210.252C182.603 203.67 193.696 200.713 204.578 200.625C218.773 200.51 230.828 192.865 239.067 181.973C249.742 167.859 256.885 148.846 253.006 130.988C250.381 118.899 251.478 103.664 239.067 100.959C233.953 99.8454 210.857 92.5133 206.062 90.4068C193.821 85.0286 200.525 80.697 192.113 74.6994C184.778 58.9506 158.175 61.3982 138.116 71.3977C118.057 81.3971 107.266 95.0135 103.112 110.208C102.491 112.507 95.4368 119.974 94.5608 122.18C90.0789 133.36 94.5192 139.46 88.2694 149.474C85.3866 154.093 86.5364 172.521 88.6123 177.881C86.8114 175.068 89.812 180.977 88.6123 177.881C92.0927 183.317 103.254 181.208 104.533 187.47C107.188 200.454 103.602 215.091 116.139 222.394C120.796 225.089 125.927 226.835 131.2 227.519Z" fill="#FFDD00"/>
</g>
<g filter="url(#filter2_i_1215_583)">
<circle cx="153" cy="141" r="67" fill="white"/>
</g>
<path fill-rule="evenodd" clip-rule="evenodd" d="M136.406 129.625C136.406 128.846 136.716 128.099 137.267 127.548C137.818 126.997 138.565 126.688 139.344 126.688H142.281C142.816 126.688 143.318 126.83 143.75 127.081C144.196 126.823 144.703 126.687 145.219 126.688H148.156C149.224 126.688 150.16 127.257 150.674 128.111C150.982 127.864 151.343 127.676 151.749 127.567L154.586 126.808C154.959 126.708 155.348 126.682 155.73 126.733C156.113 126.783 156.482 126.908 156.816 127.101C157.15 127.294 157.443 127.551 157.678 127.857C157.913 128.163 158.085 128.512 158.185 128.885L164.266 151.584C164.365 151.957 164.391 152.346 164.341 152.728C164.29 153.111 164.165 153.48 163.972 153.814C163.78 154.148 163.523 154.441 163.217 154.676C162.911 154.911 162.561 155.083 162.189 155.183L159.351 155.942C158.978 156.042 158.59 156.068 158.207 156.017C157.825 155.967 157.456 155.842 157.122 155.649C156.787 155.456 156.495 155.199 156.26 154.893C156.025 154.587 155.852 154.238 155.753 153.865L151.094 136.474V153.125C151.094 153.904 150.784 154.651 150.233 155.202C149.682 155.753 148.935 156.062 148.156 156.062H145.219C144.703 156.063 144.196 155.927 143.75 155.669C143.304 155.927 142.797 156.063 142.281 156.062H139.344C138.565 156.062 137.818 155.753 137.267 155.202C136.716 154.651 136.406 153.904 136.406 153.125V129.625ZM139.344 129.625H142.281V153.125H139.344V129.625ZM148.156 153.125H145.219V129.625H148.156V153.125ZM152.508 130.405L155.346 129.646L161.429 152.345L158.592 153.104L152.508 130.405Z" fill="#0EA9FF"/>
<path d="M192.147 142.704L183.71 123.017C183.493 122.511 183.133 122.08 182.673 121.777C182.214 121.474 181.676 121.312 181.125 121.312H172.688V115.688C172.688 114.942 172.391 114.226 171.864 113.699C171.336 113.171 170.621 112.875 169.875 112.875H124.875V118.5H167.063V153.814C165.781 154.558 164.66 155.548 163.763 156.728C162.866 157.908 162.211 159.254 161.837 160.688H144.163C143.479 158.036 141.851 155.726 139.585 154.189C137.318 152.652 134.569 151.995 131.853 152.34C129.137 152.685 126.639 154.009 124.829 156.063C123.019 158.118 122.021 160.762 122.021 163.5C122.021 166.238 123.019 168.882 124.829 170.937C126.639 172.991 129.137 174.315 131.853 174.66C134.569 175.005 137.318 174.348 139.585 172.811C141.851 171.274 143.479 168.964 144.163 166.312H161.837C162.449 168.726 163.848 170.867 165.813 172.396C167.778 173.926 170.198 174.756 172.688 174.756C175.178 174.756 177.597 173.926 179.562 172.396C181.527 170.867 182.926 168.726 183.538 166.312H189.563C190.309 166.312 191.024 166.016 191.551 165.489C192.079 164.961 192.375 164.246 192.375 163.5V143.812C192.375 143.431 192.298 143.054 192.147 142.704ZM133.313 169.125C132.2 169.125 131.113 168.795 130.188 168.177C129.263 167.559 128.542 166.68 128.116 165.653C127.69 164.625 127.579 163.494 127.796 162.403C128.013 161.311 128.549 160.309 129.335 159.523C130.122 158.736 131.124 158.2 132.215 157.983C133.306 157.766 134.437 157.877 135.465 158.303C136.493 158.729 137.372 159.45 137.99 160.375C138.608 161.3 138.938 162.387 138.938 163.5C138.936 164.991 138.343 166.421 137.288 167.476C136.234 168.53 134.804 169.124 133.313 169.125ZM172.688 126.938H179.269L185.299 141H172.688V126.938ZM172.688 169.125C171.575 169.125 170.488 168.795 169.563 168.177C168.638 167.559 167.917 166.68 167.491 165.653C167.065 164.625 166.954 163.494 167.171 162.403C167.388 161.311 167.924 160.309 168.71 159.523C169.497 158.736 170.499 158.2 171.59 157.983C172.681 157.766 173.812 157.877 174.84 158.303C175.868 158.729 176.747 159.45 177.365 160.375C177.983 161.3 178.313 162.387 178.313 163.5C178.311 164.991 177.718 166.421 176.663 167.476C175.609 168.53 174.179 169.124 172.688 169.125ZM186.75 160.688H183.538C182.919 158.278 181.517 156.143 179.554 154.616C177.59 153.089 175.175 152.257 172.688 152.25V146.625H186.75V160.688Z" fill="#0EA9FF"/>
<rect x="117" y="136.5" width="15.75" height="5.25" fill="#0EA9FF"/>
<rect x="113.25" y="127.5" width="15.75" height="5.25" fill="#0EA9FF"/>
<defs>
<filter id="filter0_d_1215_583" x="2.92383" y="37.5532" width="260.536" height="200.912" filterUnits="userSpaceOnUse" color-interpolation-filters="sRGB">
<feFlood flood-opacity="0" result="BackgroundImageFix"/>
<feColorMatrix in="SourceAlpha" type="matrix" values="0 0 0 0 0 0 0 0 0 0 0 0 0 0 0 0 0 0 127 0" result="hardAlpha"/>
<feOffset dx="2" dy="5"/>
<feGaussianBlur stdDeviation="3.5"/>
<feComposite in2="hardAlpha" operator="out"/>
<feColorMatrix type="matrix" values="0 0 0 0 0 0 0 0 0 0 0 0 0 0 0 0 0 0 0.25 0"/>
<feBlend mode="normal" in2="BackgroundImageFix" result="effect1_dropShadow_1215_583"/>
<feBlend mode="normal" in="SourceGraphic" in2="effect1_dropShadow_1215_583" result="shape"/>
</filter>
<filter id="filter1_d_1215_583" x="81.5405" y="61.3901" width="181.535" height="178.477" filterUnits="userSpaceOnUse" color-interpolation-filters="sRGB">
<feFlood flood-opacity="0" result="BackgroundImageFix"/>
<feColorMatrix in="SourceAlpha" type="matrix" values="0 0 0 0 0 0 0 0 0 0 0 0 0 0 0 0 0 0 127 0" result="hardAlpha"/>
<feOffset dx="2" dy="5"/>
<feGaussianBlur stdDeviation="3.5"/>
<feComposite in2="hardAlpha" operator="out"/>
<feColorMatrix type="matrix" values="0 0 0 0 0 0 0 0 0 0 0 0 0 0 0 0 0 0 0.25 0"/>
<feBlend mode="normal" in2="BackgroundImageFix" result="effect1_dropShadow_1215_583"/>
<feBlend mode="normal" in="SourceGraphic" in2="effect1_dropShadow_1215_583" result="shape"/>
</filter>
<filter id="filter2_i_1215_583" x="86" y="74" width="134" height="134" filterUnits="userSpaceOnUse" color-interpolation-filters="sRGB">
<feFlood flood-opacity="0" result="BackgroundImageFix"/>
<feBlend mode="normal" in="SourceGraphic" in2="BackgroundImageFix" result="shape"/>
<feColorMatrix in="SourceAlpha" type="matrix" values="0 0 0 0 0 0 0 0 0 0 0 0 0 0 0 0 0 0 127 0" result="hardAlpha"/>
<feMorphology radius="4" operator="erode" in="SourceAlpha" result="effect1_innerShadow_1215_583"/>
<feOffset/>
<feGaussianBlur stdDeviation="4"/>
<feComposite in2="hardAlpha" operator="arithmetic" k2="-1" k3="1"/>
<feColorMatrix type="matrix" values="0 0 0 0 0 0 0 0 0 0 0 0 0 0 0 0 0 0 0.25 0"/>
<feBlend mode="normal" in2="shape" result="effect1_innerShadow_1215_583"/>
</filter>
</defs>
</svg>
