<svg width="37" height="25" viewBox="0 0 37 25" fill="none" xmlns="http://www.w3.org/2000/svg">
<g id="logos:mastercard" clip-path="url(#clip0_611_2289)">
<path id="Vector" d="M7.29423 24.8757V23.221C7.29423 22.5866 6.86382 22.173 6.12606 22.173C5.75725 22.173 5.35764 22.2833 5.08097 22.6419C4.8659 22.3385 4.55856 22.173 4.09748 22.173C3.79 22.173 3.4828 22.2557 3.23679 22.5591V22.2282H2.59131V24.8757H3.23679V23.414C3.23679 22.9453 3.51347 22.7245 3.94388 22.7245C4.37402 22.7245 4.58937 22.9728 4.58937 23.414V24.8757H5.23485V23.414C5.23485 22.9453 5.54205 22.7245 5.94166 22.7245C6.37207 22.7245 6.58714 22.9728 6.58714 23.414V24.8757H7.29423ZM16.8534 22.2282H15.8084V21.4284H15.163V22.2282H14.5789V22.752H15.1628V23.9656C15.1628 24.5724 15.4395 24.9308 16.1773 24.9308C16.4539 24.9308 16.7611 24.8481 16.9765 24.7378L16.7919 24.2414C16.6075 24.3517 16.3925 24.3793 16.2387 24.3793C15.9314 24.3793 15.8084 24.2138 15.8084 23.938V22.752H16.8534V22.2282ZM22.3247 22.1729C21.9559 22.1729 21.7101 22.3385 21.5563 22.5591V22.2282H20.9108V24.8757H21.5563V23.3865C21.5563 22.9453 21.7714 22.697 22.171 22.697C22.2939 22.697 22.4477 22.7246 22.5706 22.7522L22.755 22.2007C22.6321 22.173 22.4477 22.173 22.3247 22.173V22.1729ZM14.0564 22.4488C13.7489 22.2557 13.3186 22.173 12.8576 22.173C12.12 22.173 11.6282 22.5039 11.6282 23.0279C11.6282 23.4692 11.997 23.7174 12.6425 23.8002L12.9498 23.8278C13.288 23.8828 13.4724 23.9656 13.4724 24.1035C13.4724 24.2965 13.2265 24.4344 12.7961 24.4344C12.3658 24.4344 12.0277 24.2965 11.8125 24.1587L11.5051 24.5999C11.8433 24.8205 12.3044 24.9308 12.7653 24.9308C13.626 24.9308 14.1179 24.5724 14.1179 24.0759C14.1179 23.6071 13.7183 23.3588 13.1034 23.2762L12.7961 23.2485C12.5194 23.2209 12.3044 23.1659 12.3044 23.0004C12.3044 22.8073 12.5194 22.697 12.8576 22.697C13.2265 22.697 13.5953 22.8348 13.7797 22.9176L14.0564 22.4488ZM31.2079 22.173C30.839 22.173 30.5931 22.3385 30.4393 22.5591V22.2282H29.7939V24.8757H30.4393V23.3865C30.4393 22.9453 30.6546 22.697 31.054 22.697C31.1771 22.697 31.3308 22.7246 31.4538 22.7522L31.6382 22.2007C31.5152 22.173 31.3308 22.173 31.2079 22.173ZM22.9702 23.5519C22.9702 24.3517 23.5849 24.9308 24.5379 24.9308C24.9681 24.9308 25.2755 24.8481 25.5828 24.6275L25.2755 24.1587C25.0296 24.3241 24.7837 24.4068 24.5071 24.4068C23.9845 24.4068 23.6157 24.0759 23.6157 23.5519C23.6157 23.0556 23.9845 22.7245 24.5071 22.697C24.7837 22.697 25.0296 22.7797 25.2755 22.9453L25.5828 22.4764C25.2755 22.2557 24.9681 22.173 24.5379 22.173C23.5849 22.173 22.9702 22.7522 22.9702 23.5519ZM28.9333 23.5519V22.2282H28.2878V22.5591C28.0726 22.311 27.7653 22.173 27.3657 22.173C26.5358 22.173 25.8903 22.7522 25.8903 23.5519C25.8903 24.3517 26.5358 24.9308 27.3657 24.9308C27.7959 24.9308 28.1034 24.793 28.2878 24.5447V24.8757H28.9333V23.5519ZM26.5664 23.5519C26.5664 23.0831 26.9046 22.697 27.4578 22.697C27.9803 22.697 28.3493 23.0556 28.3493 23.5519C28.3493 24.0208 27.9803 24.4068 27.4578 24.4068C26.9046 24.3792 26.5664 24.0208 26.5664 23.5519ZM18.8515 22.173C17.9908 22.173 17.3759 22.7245 17.3759 23.5519C17.3759 24.3793 17.9906 24.9308 18.8821 24.9308C19.3124 24.9308 19.7428 24.8205 20.081 24.5724L19.7735 24.1587C19.5276 24.3241 19.2203 24.4344 18.9129 24.4344C18.5133 24.4344 18.1137 24.269 18.0214 23.8H20.2039V23.5795C20.2347 22.7245 19.6815 22.173 18.8515 22.173ZM18.8515 22.6694C19.2509 22.6694 19.5277 22.8901 19.5891 23.3038H18.0522C18.1137 22.9453 18.3904 22.6694 18.8515 22.6694ZM34.8656 23.5519V21.1802H34.2201V22.5591C34.0049 22.311 33.6976 22.173 33.298 22.173C32.4681 22.173 31.8226 22.7522 31.8226 23.5519C31.8226 24.3517 32.4681 24.9308 33.298 24.9308C33.7284 24.9308 34.0357 24.793 34.2201 24.5447V24.8757H34.8656V23.5519ZM32.4989 23.5519C32.4989 23.0831 32.8369 22.697 33.3902 22.697C33.9128 22.697 34.2816 23.0556 34.2816 23.5519C34.2816 24.0208 33.9128 24.4068 33.3902 24.4068C32.8369 24.3792 32.4989 24.0208 32.4989 23.5519ZM10.9211 23.5519V22.2282H10.2756V22.5591C10.0604 22.311 9.75309 22.173 9.35348 22.173C8.52359 22.173 7.87811 22.7522 7.87811 23.5519C7.87811 24.3517 8.52359 24.9308 9.35348 24.9308C9.78389 24.9308 10.0912 24.793 10.2756 24.5447V24.8757H10.9211V23.5519ZM8.52359 23.5519C8.52359 23.0831 8.86173 22.697 9.41494 22.697C9.93749 22.697 10.3064 23.0556 10.3064 23.5519C10.3064 24.0208 9.93749 24.4068 9.41494 24.4068C8.86173 24.3792 8.52359 24.0208 8.52359 23.5519Z" fill="white"/>
<path id="Vector_2" d="M13.8411 2.12354H23.5233V17.733H13.8411V2.12354Z" fill="#FF5F00"/>
<path id="Vector_3" d="M14.4558 9.92827C14.4558 6.75678 16.1156 3.94372 18.6667 2.12349C16.7919 0.799749 14.4251 0 11.8432 0C5.72624 0 0.777588 4.44008 0.777588 9.92827C0.777588 15.4163 5.72624 19.8565 11.8431 19.8565C14.425 19.8565 16.7917 19.0568 18.6667 17.7329C16.1156 15.9403 14.4558 13.0997 14.4558 9.92827Z" fill="#EB001B"/>
<path id="Vector_4" d="M36.5866 9.92827C36.5866 15.4163 31.638 19.8565 25.5211 19.8565C22.9392 19.8565 20.5725 19.0568 18.6975 17.7329C21.2794 15.9128 22.9085 13.0997 22.9085 9.92827C22.9085 6.75678 21.2486 3.94372 18.6975 2.12349C20.5724 0.799749 22.9392 0 25.5211 0C31.638 0 36.5866 4.46771 36.5866 9.92827Z" fill="#F79E1B"/>
</g>
<defs>
<clipPath id="clip0_611_2289">
<rect width="35.8511" height="25" fill="white" transform="translate(0.774414)"/>
</clipPath>
</defs>
</svg>
