<svg width="27" height="26" viewBox="0 0 27 26" fill="none" xmlns="http://www.w3.org/2000/svg">
<circle cx="13.6589" cy="13" r="12" fill="#6DC72E"/>
<ellipse cx="13.6051" cy="13.0001" rx="10.8748" ry="10.92" fill="#010101"/>
<path d="M7.48867 16.4093C7.74467 16.2333 8.02867 16.0373 8.34067 15.8213C8.65267 15.5973 8.96867 15.3573 9.28867 15.1013C9.60867 14.8373 9.91667 14.5613 10.2127 14.2733C10.5167 13.9773 10.7847 13.6733 11.0167 13.3613C11.2567 13.0413 11.4447 12.7173 11.5807 12.3893C11.7247 12.0533 11.7967 11.7173 11.7967 11.3813C11.7967 10.8933 11.6487 10.5013 11.3527 10.2053C11.0647 9.90125 10.6807 9.74925 10.2007 9.74925C9.71267 9.74925 9.30467 9.91325 8.97667 10.2413C8.65667 10.5613 8.43667 11.0333 8.31667 11.6573L7.44067 11.3813C7.57667 10.5573 7.88867 9.92525 8.37667 9.48525C8.86467 9.03725 9.48067 8.81325 10.2247 8.81325C10.6087 8.81325 10.9567 8.87325 11.2687 8.99325C11.5887 9.11325 11.8607 9.28125 12.0847 9.49725C12.3087 9.71325 12.4807 9.97325 12.6007 10.2773C12.7287 10.5813 12.7927 10.9173 12.7927 11.2853C12.7927 11.7973 12.6687 12.3013 12.4207 12.7973C12.1807 13.2933 11.8727 13.7653 11.4967 14.2133C11.1287 14.6533 10.7207 15.0613 10.2727 15.4373C9.82467 15.8133 9.40067 16.1413 9.00067 16.4213H13.0447V17.3333H7.48867V16.4093ZM17.738 15.5813H13.646V14.6693L17.174 8.93325H18.698V14.6693H19.886V15.5813H18.698V17.3333H17.738V15.5813ZM17.738 14.6693V9.82125H17.654L14.726 14.5853V14.6693H17.738Z" fill="white"/>
</svg>
