<svg width="30" height="30" viewBox="0 0 30 30" fill="none" xmlns="http://www.w3.org/2000/svg">
<path d="M15 17C17.7575 17 20 14.7575 20 12C20 9.2425 17.7575 7 15 7C12.2425 7 10 9.2425 10 12C10 14.7575 12.2425 17 15 17ZM15 9.5C16.3787 9.5 17.5 10.6213 17.5 12C17.5 13.3788 16.3787 14.5 15 14.5C13.6212 14.5 12.5 13.3788 12.5 12C12.5 10.6213 13.6212 9.5 15 9.5Z" fill="white"/>
<path d="M14.275 27.7584C14.4866 27.9155 14.74 28 15 28C15.26 28 15.5134 27.9155 15.725 27.7584C16.105 27.4789 25.0361 20.7722 24.9999 12.4001C24.9999 6.66574 20.5137 2 15 2C9.48631 2 5.00011 6.66574 5.00011 12.3936C4.96386 20.7722 13.895 27.4789 14.275 27.7584ZM15 4.60002C19.1362 4.60002 22.4999 8.09835 22.4999 12.4066C22.5262 18.176 17.015 23.3566 15 25.0557C12.9863 23.3553 7.47383 18.1734 7.50008 12.4001C7.50008 8.09835 10.8638 4.60002 15 4.60002Z" fill="white"/>
</svg>
