<svg width="26" height="26" viewBox="0 0 26 26" fill="none" xmlns="http://www.w3.org/2000/svg">
<path d="M13 25.5C11.2917 25.5 9.67708 25.1717 8.15625 24.515C6.63542 23.8583 5.30708 22.9625 4.17125 21.8275C3.03625 20.6925 2.14042 19.3646 1.48375 17.8438C0.827085 16.3229 0.499168 14.7083 0.500002 13C0.500002 11.2708 0.828335 9.65083 1.485 8.14C2.14167 6.62917 3.0375 5.30667 4.1725 4.1725C5.3075 3.03667 6.635 2.14083 8.155 1.485C9.675 0.829167 11.29 0.500833 13 0.5C14.7292 0.5 16.3492 0.828333 17.86 1.485C19.3708 2.14167 20.6933 3.0375 21.8275 4.1725C22.9633 5.3075 23.8592 6.63042 24.515 8.14125C25.1708 9.65208 25.4992 11.2717 25.5 13C25.5 14.7083 25.1717 16.3229 24.515 17.8438C23.8583 19.3646 22.9625 20.6929 21.8275 21.8287C20.6925 22.9637 19.3696 23.8596 17.8587 24.5162C16.3479 25.1729 14.7283 25.5008 13 25.5ZM13 22.9375C13.5417 22.1875 14.0104 21.4062 14.4063 20.5938C14.8021 19.7813 15.125 18.9167 15.375 18H10.625C10.875 18.9167 11.1979 19.7813 11.5938 20.5938C11.9896 21.4062 12.4583 22.1875 13 22.9375ZM9.75 22.4375C9.375 21.75 9.04667 21.0362 8.765 20.2962C8.48334 19.5562 8.24917 18.7908 8.0625 18H4.375C4.97917 19.0417 5.73458 19.9479 6.64125 20.7188C7.54792 21.4896 8.58417 22.0625 9.75 22.4375ZM16.25 22.4375C17.4167 22.0625 18.4533 21.4896 19.36 20.7188C20.2667 19.9479 21.0217 19.0417 21.625 18H17.9375C17.75 18.7917 17.5158 19.5575 17.235 20.2975C16.9542 21.0375 16.6258 21.7508 16.25 22.4375ZM3.3125 15.5H7.5625C7.5 15.0833 7.45292 14.6717 7.42125 14.265C7.38959 13.8583 7.37417 13.4367 7.375 13C7.375 12.5625 7.39084 12.1408 7.4225 11.735C7.45417 11.3292 7.50083 10.9175 7.5625 10.5H3.3125C3.20833 10.9167 3.13 11.3283 3.0775 11.735C3.025 12.1417 2.99917 12.5633 3 13C3 13.4375 3.02625 13.8592 3.07875 14.265C3.13125 14.6708 3.20917 15.0825 3.3125 15.5ZM10.0625 15.5H15.9375C16 15.0833 16.0471 14.6717 16.0788 14.265C16.1104 13.8583 16.1258 13.4367 16.125 13C16.125 12.5625 16.1092 12.1408 16.0775 11.735C16.0458 11.3292 15.9992 10.9175 15.9375 10.5H10.0625C10 10.9167 9.95292 11.3283 9.92125 11.735C9.88958 12.1417 9.87417 12.5633 9.875 13C9.875 13.4375 9.89083 13.8592 9.9225 14.265C9.95417 14.6708 10.0008 15.0825 10.0625 15.5ZM18.4375 15.5H22.6875C22.7917 15.0833 22.87 14.6717 22.9225 14.265C22.975 13.8583 23.0008 13.4367 23 13C23 12.5625 22.9738 12.1408 22.9213 11.735C22.8688 11.3292 22.7908 10.9175 22.6875 10.5H18.4375C18.5 10.9167 18.5471 11.3283 18.5788 11.735C18.6104 12.1417 18.6258 12.5633 18.625 13C18.625 13.4375 18.6092 13.8592 18.5775 14.265C18.5458 14.6708 18.4992 15.0825 18.4375 15.5ZM17.9375 8H21.625C21.0208 6.95833 20.2658 6.05208 19.36 5.28125C18.4542 4.51042 17.4175 3.9375 16.25 3.5625C16.625 4.25 16.9533 4.96375 17.235 5.70375C17.5167 6.44375 17.7508 7.20917 17.9375 8ZM10.625 8H15.375C15.125 7.08333 14.8021 6.21875 14.4063 5.40625C14.0104 4.59375 13.5417 3.8125 13 3.0625C12.4583 3.8125 11.9896 4.59375 11.5938 5.40625C11.1979 6.21875 10.875 7.08333 10.625 8ZM4.375 8H8.0625C8.25 7.20833 8.48458 6.4425 8.76625 5.7025C9.04792 4.9625 9.37583 4.24917 9.75 3.5625C8.58333 3.9375 7.54667 4.51042 6.64 5.28125C5.73334 6.05208 4.97833 6.95833 4.375 8Z" fill="white"/>
</svg>
