<svg width="30" height="30" viewBox="0 0 30 30" fill="none" xmlns="http://www.w3.org/2000/svg">
<path d="M13.5713 26.0713C20.4748 26.0713 26.0713 20.4748 26.0713 13.5713C26.0713 6.66773 20.4748 1.07129 13.5713 1.07129C6.66773 1.07129 1.07129 6.66773 1.07129 13.5713C1.07129 20.4748 6.66773 26.0713 13.5713 26.0713Z" stroke="white" stroke-width="2.14286" stroke-linecap="round" stroke-linejoin="round"/>
<path d="M11 10.2143C11 9.57856 11.1885 8.95711 11.5417 8.42853C11.8949 7.89994 12.3969 7.48796 12.9842 7.24467C13.5716 7.00139 14.2179 6.93774 14.8414 7.06176C15.4649 7.18579 16.0376 7.49192 16.4871 7.94144C16.9367 8.39097 17.2428 8.9637 17.3668 9.58721C17.4908 10.2107 17.4272 10.857 17.1839 11.4443C16.9406 12.0317 16.5286 12.5337 16 12.8869C15.4715 13.2401 14.85 13.4286 14.2143 13.4286V15.5714" stroke="white" stroke-width="2.14286" stroke-linecap="round" stroke-linejoin="round"/>
<path d="M14.2146 18.7861C13.8967 18.7861 13.586 18.8804 13.3217 19.057C13.0574 19.2336 12.8514 19.4846 12.7298 19.7782C12.6081 20.0719 12.5763 20.3951 12.6383 20.7068C12.7003 21.0186 12.8534 21.3049 13.0781 21.5297C13.3029 21.7545 13.5893 21.9075 13.901 21.9695C14.2128 22.0315 14.5359 21.9997 14.8296 21.8781C15.1233 21.7564 15.3743 21.5504 15.5509 21.2862C15.7275 21.0219 15.8217 20.7111 15.8217 20.3933C15.8162 19.9688 15.6451 19.5632 15.3449 19.263C15.0446 18.9628 14.6391 18.7917 14.2146 18.7861Z" fill="white"/>
</svg>
