<svg width="96" height="20" viewBox="0 0 96 20" fill="none" xmlns="http://www.w3.org/2000/svg">
<g id="Group 93">
<g id="Group 2">
<g id="Group">
<path id="Path" fill-rule="evenodd" clip-rule="evenodd" d="M80.4957 15.4293L80.2762 15.2403C79.7431 14.7838 79.649 13.9493 80.135 13.414L85.8424 6.86448C86.297 6.32918 87.128 6.23471 87.6611 6.72278L87.8806 6.91171C88.4137 7.36829 88.5078 8.20272 88.0217 8.73804L82.3146 15.2876C81.8599 15.8229 81.0601 15.8859 80.4957 15.4293Z" fill="url(#paint0_linear_646_984)"/>
<path id="Path_2" opacity="0.4" fill-rule="evenodd" clip-rule="evenodd" d="M85.0742 7.99802L84.9644 7.87207L84.0864 8.87969L84.1805 8.9899C85.6857 10.5013 85.0428 12.0285 84.6979 12.5638L84.8233 12.4221C85.0272 12.186 85.3407 11.8238 85.67 11.4302C86.0149 10.8319 86.5012 9.41498 85.0742 7.99802Z" fill="url(#paint1_linear_646_984)"/>
<path id="Path_3" opacity="0.4" fill-rule="evenodd" clip-rule="evenodd" d="M86.9562 9.96612L87.1914 9.69847C87.2071 9.66698 87.2384 9.63549 87.2541 9.604C87.0032 9.8874 86.7367 10.1865 86.4858 10.4857C86.674 10.281 86.8308 10.1078 86.9562 9.96612Z" fill="url(#paint2_radial_646_984)"/>
<path id="Path_4" fill-rule="evenodd" clip-rule="evenodd" d="M88.0538 7.06955L82.3466 0.519996C81.8919 -0.0153035 81.061 -0.109768 80.5279 0.3783L80.3084 0.567228C79.7753 1.02381 79.6812 1.85825 80.1673 2.39356L84.9807 7.8725L85.0904 7.99845C86.5172 9.43118 86.0312 10.8481 85.6706 11.4464C85.9528 11.1158 86.235 10.7852 86.5016 10.486C86.7524 10.1869 87.019 9.88775 87.2698 9.60436C87.5207 9.32095 87.7559 9.0533 87.9127 8.88011C88.4614 8.34482 88.5398 7.60485 88.0538 7.06955Z" fill="url(#paint3_linear_646_984)"/>
</g>
<g id="Group_2">
<path id="Path_5" fill-rule="evenodd" clip-rule="evenodd" d="M87.7398 15.4293L87.5203 15.2403C86.9872 14.7838 86.8931 13.9493 87.3792 13.414L93.0865 6.86448C93.5412 6.32918 94.3722 6.23471 94.9053 6.72278L95.1248 6.91171C95.6578 7.36829 95.7519 8.20272 95.2659 8.73804L89.5587 15.2876C89.1039 15.8229 88.3042 15.8859 87.7398 15.4293Z" fill="url(#paint4_linear_646_984)"/>
<path id="Path_6" opacity="0.4" fill-rule="evenodd" clip-rule="evenodd" d="M92.3813 7.93528L92.2716 7.80933L91.3936 8.81696L91.4876 8.92717C92.9928 10.4386 92.35 11.9658 92.005 12.5011L92.1305 12.3594C92.3343 12.1232 92.6479 11.7611 92.9771 11.3675C93.3221 10.7692 93.8081 9.35226 92.3813 7.93528Z" fill="url(#paint5_linear_646_984)"/>
<path id="Path_7" opacity="0.4" fill-rule="evenodd" clip-rule="evenodd" d="M94.1842 9.96612L94.4194 9.69847C94.4351 9.66698 94.4665 9.63549 94.4821 9.604C94.2313 9.8874 93.9647 10.1865 93.7139 10.4857C93.902 10.281 94.0745 10.1078 94.1842 9.96612Z" fill="url(#paint6_radial_646_984)"/>
<path id="Path_8" fill-rule="evenodd" clip-rule="evenodd" d="M95.281 7.06955L89.5737 0.519996C89.119 -0.0153035 88.288 -0.109768 87.7549 0.3783L87.5354 0.567228C87.0023 1.02381 86.9083 1.85825 87.3943 2.39356L92.2077 7.8725L92.3175 7.99845C93.7443 9.43118 93.2582 10.8481 92.8976 11.4464C93.1798 11.1158 93.4621 10.7852 93.7286 10.486C93.9795 10.1869 94.246 9.88775 94.4969 9.60436C94.7477 9.32095 94.9831 9.0533 95.1399 8.88011C95.6887 8.34482 95.767 7.60485 95.281 7.06955Z" fill="url(#paint7_linear_646_984)"/>
</g>
</g>
<g id="Group_3">
<path id="Path_9" fill-rule="evenodd" clip-rule="evenodd" d="M0.344938 15.3665C0.125432 15.1461 0 14.8155 0 14.4061V1.44871C0 1.02362 0.125432 0.692991 0.391975 0.425341C0.658519 0.157691 0.987778 0.0317383 1.41111 0.0317383C1.83444 0.0317383 2.21075 0.157691 2.46161 0.425341C2.72815 0.692991 2.85358 1.02362 2.85358 1.44871V13.3985H9.01544C9.89346 13.3985 10.3482 13.7921 10.3482 14.5636C10.3482 15.335 9.89346 15.7286 9.01544 15.7286H1.33272C0.909384 15.7286 0.580124 15.6027 0.344938 15.3665Z" fill="white"/>
<path id="Path_10" fill-rule="evenodd" clip-rule="evenodd" d="M12.5741 15.4608C12.3076 15.1932 12.1821 14.8468 12.1821 14.406V1.43284C12.1821 1.00775 12.3076 0.677122 12.5741 0.409471C12.8406 0.141822 13.1699 0.0158691 13.5932 0.0158691C14.0166 0.0158691 14.3929 0.141822 14.6437 0.409471C14.9103 0.677122 15.0357 1.00775 15.0357 1.43284V14.406C15.0357 14.8311 14.9103 15.1932 14.6437 15.4608C14.3772 15.7285 14.0323 15.8544 13.5932 15.8544C13.1856 15.8544 12.8406 15.7285 12.5741 15.4608Z" fill="white"/>
<path id="Shape" fill-rule="evenodd" clip-rule="evenodd" d="M31.3426 18.6725C31.3426 18.4049 31.2485 18.153 31.0917 17.8853L30.3078 16.7045C29.8531 15.9645 29.3043 15.4607 28.6302 15.2403C29.9315 14.6578 30.935 13.7446 31.6248 12.4851C32.3304 11.2413 32.6753 9.71412 32.6753 7.96652C32.6753 6.34488 32.3774 4.9279 31.7816 3.73135C31.1858 2.55055 30.3392 1.62164 29.226 0.960392C28.1284 0.330627 26.8114 0 25.3219 0C23.801 0 22.4997 0.299138 21.3863 0.960392C20.2888 1.62164 19.4264 2.53481 18.8307 3.73135C18.2506 4.94364 17.937 6.34488 17.937 7.96652C17.937 9.57243 18.2349 10.9894 18.8307 12.2017C19.4264 13.3825 20.2731 14.3114 21.3863 14.9726C22.4997 15.6024 23.801 15.9331 25.3219 15.9331C25.855 15.9331 26.2783 16.0275 26.6076 16.185C26.9368 16.3424 27.2034 16.5943 27.4072 16.9407L28.6929 19.0819C28.8497 19.3181 29.0535 19.507 29.273 19.633C29.5082 19.7589 29.759 19.8219 30.0256 19.8219C30.3705 19.8219 30.6841 19.696 30.9506 19.4913C31.2172 19.2866 31.3426 19.0031 31.3426 18.6725ZM29.8374 7.93505C29.8374 9.76136 29.4298 11.1783 28.6302 12.1702C27.8305 13.1621 26.7173 13.6502 25.2905 13.6502C23.8638 13.6502 22.7349 13.1621 21.9353 12.1702C21.1356 11.1783 20.728 9.79284 20.728 7.93505C20.728 6.07723 21.1356 4.69176 21.9353 3.69989C22.7349 2.72374 23.8481 2.23567 25.2905 2.23567C26.733 2.23567 27.8305 2.70799 28.6302 3.69989C29.4298 4.69176 29.8374 6.07723 29.8374 7.93505Z" fill="white"/>
<path id="Shape_2" fill-rule="evenodd" clip-rule="evenodd" d="M35.7329 14.406C35.7329 14.8469 35.8583 15.1932 36.1249 15.4609C36.3601 15.7285 36.7207 15.8545 37.144 15.8702C37.583 15.8702 37.928 15.7443 38.1945 15.4766C38.461 15.2247 38.5865 14.8783 38.5865 14.4217V9.66703H42.5219C44.1839 9.66703 45.4695 9.25769 46.3946 8.40751C47.3196 7.57306 47.79 6.39226 47.79 4.89657C47.79 3.40087 47.3196 2.22007 46.3946 1.40137C45.4695 0.551193 44.1839 0.141846 42.5219 0.141846H37.1127C36.6893 0.141846 36.3601 0.267798 36.1092 0.488217C35.8583 0.724377 35.7329 1.055 35.7329 1.4801V14.406ZM45.0932 4.92804C45.0932 6.62842 44.1055 7.49434 42.1613 7.49434L38.5865 7.47859V2.36177H42.1613C44.1055 2.36177 45.0932 3.22769 45.0932 4.92804Z" fill="white"/>
<path id="Shape_3" fill-rule="evenodd" clip-rule="evenodd" d="M62.3866 15.4607C62.6531 15.2088 62.7942 14.9254 62.7942 14.5948C62.7942 14.3901 62.7472 14.2169 62.6845 14.0123L56.5854 0.897415C56.4443 0.598277 56.2405 0.377859 55.9739 0.220418C55.7074 0.0787205 55.4252 0 55.1116 0C54.798 0 54.5158 0.0629765 54.2492 0.220418C53.967 0.377859 53.7632 0.614021 53.6378 0.897415L47.5541 14.0123C47.4757 14.2012 47.4287 14.4059 47.4287 14.5948C47.4287 14.9412 47.5541 15.2403 47.8364 15.4607C48.1029 15.6811 48.4322 15.8071 48.7614 15.8071C49.0123 15.8071 49.2318 15.7441 49.4356 15.6182C49.6394 15.4922 49.7962 15.3033 49.9217 15.0356L51.2546 12.0757H58.9686L60.3013 15.0356C60.4111 15.2875 60.5835 15.4922 60.7873 15.6182C60.9912 15.7441 61.2264 15.8071 61.4459 15.8071C61.8065 15.8071 62.1201 15.6811 62.3866 15.4607ZM58.0279 9.87156H52.2108L55.1116 3.32201L58.0279 9.87156Z" fill="white"/>
<path id="Path_11" fill-rule="evenodd" clip-rule="evenodd" d="M73.769 0.0316133C74.0982 0.0316133 74.3961 0.157566 74.6627 0.425215C74.9292 0.692866 75.0546 0.97626 75.0546 1.35412C75.0546 1.63751 74.9449 1.93664 74.7254 2.20431L69.7238 8.32876V14.4532C69.7238 14.9098 69.5984 15.2562 69.3318 15.5238C69.0653 15.7915 68.736 15.9017 68.3284 15.9017C67.905 15.9017 67.5444 15.7757 67.2779 15.5238C67.0113 15.2719 66.8859 14.9255 66.8859 14.4532V8.32876L61.9157 2.18857C61.6962 1.9209 61.5864 1.63751 61.5864 1.33837C61.5864 0.992004 61.7119 0.677122 61.9784 0.409471C62.2449 0.141822 62.5585 0.0158691 62.8721 0.0158691C63.2484 0.0158691 63.5463 0.17331 63.8128 0.503937L68.3127 6.10885L72.7969 0.503937C73.0634 0.189054 73.3927 0.0316133 73.769 0.0316133Z" fill="white"/>
</g>
</g>
<defs>
<linearGradient id="paint0_linear_646_984" x1="82.2783" y1="17.4735" x2="90.2113" y2="13.6431" gradientUnits="userSpaceOnUse">
<stop stop-color="#1FADC3"/>
<stop offset="0.7072" stop-color="#36B98F"/>
</linearGradient>
<linearGradient id="paint1_linear_646_984" x1="85.0599" y1="11.2799" x2="86.5406" y2="11.0652" gradientUnits="userSpaceOnUse">
<stop stop-color="#123F06" stop-opacity="0.01"/>
<stop offset="1" stop-color="#123F06"/>
</linearGradient>
<radialGradient id="paint2_radial_646_984" cx="0" cy="0" r="1" gradientUnits="userSpaceOnUse" gradientTransform="translate(83.8112 10.7846) scale(3.82285 4.3871)">
<stop offset="0.4185" stop-color="#123F06" stop-opacity="0.01"/>
<stop offset="1" stop-color="#123F06"/>
</radialGradient>
<linearGradient id="paint3_linear_646_984" x1="76.8621" y1="8.73913" x2="86.4762" y2="12.0478" gradientUnits="userSpaceOnUse">
<stop stop-color="#9FDB57"/>
<stop offset="1" stop-color="#71CA5E"/>
</linearGradient>
<linearGradient id="paint4_linear_646_984" x1="89.5155" y1="17.4775" x2="97.4485" y2="13.6471" gradientUnits="userSpaceOnUse">
<stop stop-color="#1FADC3"/>
<stop offset="0.7072" stop-color="#36B98F"/>
</linearGradient>
<linearGradient id="paint5_linear_646_984" x1="92.3668" y1="11.2172" x2="93.8476" y2="11.0024" gradientUnits="userSpaceOnUse">
<stop stop-color="#123F06" stop-opacity="0.01"/>
<stop offset="1" stop-color="#123F06"/>
</linearGradient>
<radialGradient id="paint6_radial_646_984" cx="0" cy="0" r="1" gradientUnits="userSpaceOnUse" gradientTransform="translate(91.0458 10.7846) scale(3.82285 4.3871)">
<stop offset="0.4185" stop-color="#123F06" stop-opacity="0.01"/>
<stop offset="1" stop-color="#123F06"/>
</radialGradient>
<linearGradient id="paint7_linear_646_984" x1="84.0939" y1="8.74201" x2="93.708" y2="12.0506" gradientUnits="userSpaceOnUse">
<stop stop-color="#9FDB57"/>
<stop offset="1" stop-color="#71CA5E"/>
</linearGradient>
</defs>
</svg>
