<svg width="62" height="20" viewBox="0 0 62 20" fill="none" xmlns="http://www.w3.org/2000/svg">
<g id="logos:visa" clip-path="url(#clip0_611_2286)">
<path id="Vector" d="M32.3359 6.36811C32.3009 9.14305 34.7987 10.6915 36.6803 11.6122C38.6135 12.5568 39.2628 13.1626 39.2552 14.0074C39.2408 15.3002 37.7131 15.8708 36.2836 15.8929C33.7897 15.9317 32.3395 15.2168 31.1867 14.6761L30.2883 18.8975C31.4449 19.4327 33.5866 19.8994 35.8075 19.9199C41.0208 19.9199 44.4315 17.3358 44.45 13.3293C44.4704 8.2445 37.4458 7.96305 37.4938 5.69028C37.5104 5.00112 38.1652 4.2657 39.6002 4.07871C40.3105 3.98426 42.2713 3.91197 44.4944 4.93992L45.3669 0.855579C44.1714 0.418472 42.6349 -8.39233e-05 40.7218 -8.39233e-05C35.815 -8.39233e-05 32.3638 2.61919 32.3359 6.36811ZM53.7509 0.351725C52.7989 0.351725 51.9967 0.909313 51.6387 1.76498L44.1918 19.6199H49.4012L50.4379 16.7431H56.8037L57.4051 19.6199H61.9966L57.9899 0.351725H53.7509ZM54.4797 5.55679L55.9831 12.7922H51.8657L54.4797 5.55679ZM26.0197 0.351965L21.9134 19.6197H26.8776L30.982 0.351482H26.0197M18.676 0.351482L13.509 13.4664L11.4189 2.31534C11.1737 1.07052 10.2052 0.351725 9.12963 0.351725H0.683245L0.564941 0.911242C2.29895 1.28907 4.26908 1.89847 5.46268 2.55052C6.19314 2.94883 6.40143 3.29703 6.6414 4.24353L10.6001 19.6199H15.8461L23.8888 0.351725L18.676 0.351482Z" fill="url(#paint0_linear_611_2286)"/>
</g>
<defs>
<linearGradient id="paint0_linear_611_2286" x1="2824.83" y1="59.8795" x2="2882.73" y2="-1985.92" gradientUnits="userSpaceOnUse">
<stop stop-color="white"/>
<stop offset="1" stop-color="#254AA5"/>
</linearGradient>
<clipPath id="clip0_611_2286">
<rect width="61.4383" height="20" fill="white" transform="translate(0.561768)"/>
</clipPath>
</defs>
</svg>
