<svg width="24" height="24" viewBox="0 0 24 24" fill="none" xmlns="http://www.w3.org/2000/svg">
<g id="arrow">
<path id="Vector" d="M7.28219 3.68725C7.19197 3.59178 7.12144 3.47947 7.07462 3.35674C7.02781 3.23401 7.00562 3.10327 7.00934 2.97196C7.01305 2.84066 7.04259 2.71138 7.09627 2.59149C7.14995 2.47161 7.22672 2.36347 7.32219 2.27325C7.41766 2.18303 7.52997 2.1125 7.65269 2.06569C7.77542 2.01887 7.90617 1.99669 8.03747 2.0004C8.16877 2.00411 8.29806 2.03365 8.41795 2.08733C8.53783 2.14101 8.64597 2.21778 8.73619 2.31325L17.2362 11.3132C17.4117 11.4989 17.5095 11.7447 17.5095 12.0002C17.5095 12.2558 17.4117 12.5016 17.2362 12.6872L8.73619 21.6882C8.64657 21.7858 8.53845 21.8646 8.41812 21.92C8.2978 21.9754 8.16766 22.0064 8.03526 22.0111C7.90287 22.0158 7.77086 21.9942 7.6469 21.9474C7.52294 21.9007 7.40951 21.8298 7.31319 21.7388C7.21687 21.6479 7.13958 21.5387 7.08582 21.4176C7.03205 21.2965 7.00288 21.166 6.99999 21.0335C6.99711 20.9011 7.02057 20.7694 7.06901 20.6461C7.11746 20.5228 7.18992 20.4103 7.28219 20.3153L15.1342 12.0002L7.28219 3.68725Z" fill="white"/>
</g>
</svg>
