<svg width="98" height="99" viewBox="0 0 98 99" fill="none" xmlns="http://www.w3.org/2000/svg">
<path d="M51.2809 1.12502C47.1921 1.56126 43.0653 2.52859 39.7942 3.81834C35.7435 5.41158 31.2743 8.12386 28.2315 10.7982C27.3377 11.5759 26.1015 12.638 25.493 13.1312C24.8844 13.6243 24.3899 14.0795 24.3899 14.1364C24.3899 14.2692 24.504 14.1933 26.4819 12.8656C29.81 10.6465 34.4122 8.80668 38.8624 7.91523C40.7071 7.55486 41.6389 7.49796 45.2142 7.47898C49.5503 7.47898 50.349 7.57382 53.8673 8.4463C60.1241 9.98264 65.8294 13.2639 70.6028 18.0057C75.3572 22.7285 78.7423 28.6273 80.492 35.1329C80.7962 36.271 80.9864 37.3142 80.9484 37.4469C80.8913 37.5797 80.9294 37.8642 81.0435 38.0728C81.7852 39.4764 82.0894 46.8167 81.5379 50.6101C80.3779 58.6331 76.9927 65.7268 71.6678 71.3031C68.5108 74.6034 65.392 76.9363 61.5884 78.7761C57.6328 80.7108 52.9354 81.9816 48.8276 82.2471C46.5835 82.3799 46.4314 82.3419 42.5518 80.5021C29.829 74.4896 21.4232 62.0282 21.0238 48.4858C20.8527 43.3836 21.5563 38.9453 23.1728 34.8484C24.3329 31.9086 24.6562 31.3964 26.1396 30.1446C33.8417 23.6958 44.3394 20.4335 54.2666 21.4198C63.7374 22.3871 72.5996 27.1099 78.2669 34.2036C79.0276 35.1519 79.8644 36.252 80.1116 36.6313C80.9103 37.8263 80.7772 37.2383 79.9024 35.7968C79.465 35.0381 78.7423 33.7673 78.324 32.9897C73.6646 24.2079 66.7042 17.7781 57.8039 14.0416C54.628 12.7139 50.5772 11.6138 47.116 11.1586C44.4916 10.7982 38.3299 10.8551 35.9907 11.2534C29.3535 12.3914 24.3329 14.3261 19.2362 17.7212C8.98565 24.5683 2.38653 35.5123 1.20744 47.6702C0.503786 54.7638 1.58779 61.5541 4.49749 68.2684C5.84774 71.379 8.56726 75.6466 10.8113 78.2071C15.1093 83.1006 19.9969 86.7044 25.7212 89.1701C27.3947 89.8908 33.138 91.8444 33.2522 91.7306C33.2902 91.6927 32.7006 91.3703 31.9399 91.0099C18.8748 84.8456 11.0396 71.2652 12.1996 56.7744C12.7131 50.1549 15.1474 43.2508 18.6656 38.3004C20.2821 36.0244 20.6815 35.5313 22.7354 33.2742C23.4961 32.4396 23.7053 32.6293 23.0016 33.5018C21.4993 35.3416 18.8938 40.2161 17.7908 43.2319C16.2124 47.5564 15.4516 51.4825 15.3185 56.0346C15.1664 61.023 15.5277 63.906 16.878 68.7426C20.6435 82.1523 31.4074 92.8307 45.0431 96.681C49.6834 98.0087 55.712 98.5588 60.1431 98.0656C79.408 95.9603 94.3178 81.5453 96.7711 62.6352C97.3226 58.3107 97.0373 52.7723 95.9343 47.215C95.8582 46.8167 95.7631 48.0495 95.687 50.2497C95.4969 55.6363 94.565 59.6763 92.4921 64.0198C86.4635 76.6329 73.8548 84.3904 59.4014 84.3904C56.9101 84.3904 53.8292 84.0869 51.5852 83.6317C50.0637 83.3093 48.4663 82.854 48.2761 82.6833C48.2 82.5885 50.5011 82.5316 53.4108 82.5506C58.7358 82.5885 59.8008 82.5126 63.1859 81.7919C75.4143 79.2503 85.7979 71.2083 91.4271 59.9608C92.7203 57.3623 93.2718 55.9208 94.0705 53.1516C96.5999 44.3509 96.1625 35.4554 92.7203 26.6547C88.099 14.8003 77.4682 5.48744 64.8975 2.26305C60.9418 1.25779 54.8752 0.745682 51.2809 1.12502ZM66.6091 5.90472C75.2241 8.97738 82.679 15.1037 87.4714 23.032C91.4651 29.6704 93.3479 37.7694 92.6823 45.5838C91.7124 56.983 86.0641 67.0735 76.5933 74.262C75.0149 75.4569 70.9831 77.9036 70.9831 77.6571C70.9831 77.6191 71.7438 77.0501 72.6947 76.4242C77.0117 73.5223 80.3208 70.222 83.1925 65.8975C87.9279 58.7849 90.229 50.648 89.9437 42.037C89.7155 35.1709 88.08 29.2152 84.7899 23.2216C82.9452 19.8645 81.1005 17.4367 78.2479 14.5158C74.9959 11.2345 71.3255 8.57907 67.5029 6.75824C64.1178 5.14603 63.9847 5.08913 64.5171 5.22191C64.7834 5.27881 65.7153 5.58228 66.6091 5.90472ZM54.9513 5.79092C54.8942 5.84782 54.7231 5.86678 54.5899 5.80988C54.4378 5.75298 54.4949 5.69608 54.704 5.69608C54.9132 5.67712 55.0273 5.73402 54.9513 5.79092ZM57.7278 6.32199C63.5282 7.68762 69.6139 10.7982 73.9309 14.5916C82.9072 22.444 87.6806 33.4639 87.2813 45.3183C87.053 51.9757 85.3985 57.7037 82.0704 63.4887C79.2748 68.3443 75.167 72.7636 70.6979 75.7224C69.9752 76.2156 69.2525 76.7087 69.1194 76.8225C68.682 77.1829 64.6313 79.1934 63.6614 79.5158C62.4823 79.9331 62.5583 79.8762 64.6122 78.7951C75.9467 72.9153 83.4777 60.9471 84.2575 47.5753C84.9231 36.1761 81.3097 25.5166 74.0069 17.3798C71.0972 14.1364 67.8643 11.5569 64.1558 9.48949C61.7976 8.18076 60.4664 7.59279 57.4806 6.6065C54.9323 5.77195 55.0083 5.67712 57.7278 6.32199ZM47.5914 13.5295C52.7642 14.1744 56.853 15.4262 61.5694 17.7591C63.281 18.6316 65.5251 19.9214 65.43 20.0162C65.392 20.0352 64.2699 19.5231 62.9387 18.8592C59.9909 17.3988 55.9402 16.0711 52.7262 15.502C49.265 14.8761 42.6659 14.8761 39.2237 15.502C37.9305 15.7297 36.5993 16.0142 36.276 16.109C35.9717 16.2228 34.8877 16.5452 33.8988 16.8487C31.8639 17.4557 28.9922 18.6316 27.0904 19.6558C21.9176 22.3871 16.878 26.5978 13.5309 30.9981C9.23288 36.6313 6.60845 42.6629 5.44837 49.5858C4.87784 53.0189 4.89686 58.102 5.48641 61.7248C5.73363 63.1852 5.41034 62.2748 5.01096 60.3971C4.34535 57.1537 4.17419 54.9725 4.2883 51.1032C4.42142 46.9874 4.61159 45.5269 5.39132 42.4732C8.58628 30.0308 17.3914 20.149 29.2394 15.7676C32.4534 14.5727 36.314 13.6812 39.509 13.3967C41.4868 13.226 45.6326 13.2829 47.5914 13.5295ZM51.2048 17.4367C55.8071 17.9867 59.8768 19.2006 63.8135 21.1542C66.2287 22.3492 68.682 23.8476 70.1083 25.0045C71.2304 25.915 70.7359 25.7063 68.9483 24.5304C63.6614 21.0594 56.834 19.1437 49.7595 19.1437C43.5787 19.1437 38.0446 20.4335 32.4154 23.1647C30.0001 24.3407 25.9113 26.8443 24.8654 27.8117C24.6562 28.0013 24.0666 28.4755 23.5722 28.8928C22.1459 30.0308 19.5214 32.7241 18.019 34.6019C14.5578 38.9264 12.1426 43.5543 10.6021 48.8272C8.89056 54.7069 8.75744 61.6489 10.2218 67.6804C10.488 68.7615 10.6782 69.6909 10.6212 69.7288C10.5451 69.8237 9.67029 67.1304 9.17583 65.1388C8.33905 61.9144 8.14888 60.1695 8.14888 56.0346C8.14888 51.7291 8.30102 50.4014 9.19485 46.6649C12.1806 34.4501 21.3471 24.17 33.2712 19.7127C36.1238 18.6316 40.3838 17.6074 42.9321 17.3798C44.6627 17.2281 49.7024 17.266 51.2048 17.4367ZM19.7687 43.4595C19.7116 43.6112 19.6545 43.5543 19.6545 43.3457C19.6355 43.137 19.6926 43.0232 19.7496 43.0991C19.8067 43.156 19.8257 43.3267 19.7687 43.4595ZM19.4834 47.4046C19.4263 49.4531 19.4834 51.6343 19.6355 52.924C20.3582 59.4297 23.3249 66.4475 27.68 71.8721C30.2854 75.1155 34.7165 78.9848 38.3679 81.2039C42.9131 83.9541 49.0178 86.1164 54.4378 86.8751C57.1383 87.2734 63.5282 87.2165 66.1336 86.7802C73.2653 85.6043 80.1116 82.4557 84.809 78.2451C86.2923 76.8984 86.8248 76.576 85.912 77.5812C85.0562 78.4916 84.9991 78.5675 83.4207 80.009C78.1148 84.9025 70.5077 88.3924 62.9006 89.4356C60.3903 89.777 54.8562 89.777 52.4409 89.4166C38.5581 87.4061 27.0904 78.5675 21.6894 65.7078C20.8717 63.7542 19.8637 60.3212 19.4073 57.8365C18.8938 55.1622 18.8178 48.8272 19.2362 45.8304C19.3693 44.8251 19.5214 43.9906 19.5404 43.9906C19.5595 43.9906 19.5404 45.5269 19.4834 47.4046ZM17.2964 50.7618C17.2393 50.9515 17.2013 50.8377 17.2013 50.5342C17.2013 50.2118 17.2393 50.079 17.2964 50.1928C17.3344 50.3256 17.3344 50.5911 17.2964 50.7618ZM17.3534 56.1295C18.1522 65.1768 21.9747 73.5223 28.3836 80.0849C38.2158 90.2133 52.2127 94.5947 66.2287 91.9393C70.6789 91.1047 76.232 88.8476 79.9785 86.344C82.4508 84.6749 82.679 84.5611 81.633 85.5094C80.6061 86.4388 77.1449 88.9425 76.8976 88.9425C76.8025 88.9425 76.6884 88.9994 76.6504 89.0752C76.4412 89.5874 70.85 92.2048 68.0925 93.0963C63.3951 94.6136 59.8768 95.1068 54.647 94.955C48.6564 94.7843 43.8069 93.6273 39.0145 91.2185C38.1397 90.7633 37.1698 90.2702 36.8465 90.1184C35.8195 89.5874 33.138 87.7855 31.7498 86.6664C23.6102 80.1228 18.4184 70.5824 17.1823 59.828C17.0681 58.8797 16.9921 56.7175 17.0111 54.9915C17.0301 53.2654 17.0681 52.2792 17.1062 52.8102C17.1252 53.3224 17.2393 54.8207 17.3534 56.1295Z" fill="#252525"/>
<path d="M29.106 32.7434C28.8017 32.8193 28.7637 33.1607 28.7637 36.4041V39.9888H31.6163L34.469 40.0078V39.344C34.469 38.4715 33.8794 37.3145 33.1377 36.7455L32.5482 36.2903L33.3089 35.4937C34.0506 34.716 34.3929 33.8246 34.2408 33.0469C34.1837 32.7434 33.9555 32.7055 31.8065 32.6865C30.4943 32.6676 29.2771 32.6865 29.106 32.7434ZM32.9095 34.0332C32.9476 34.0711 32.8334 34.3177 32.6433 34.6022C32.2439 35.2091 31.5402 35.5885 30.6654 35.6833L29.9998 35.7402L29.9428 34.8488C29.9047 34.128 29.9428 33.9573 30.228 33.9004C30.5703 33.8246 32.7954 33.9384 32.9095 34.0332ZM32.1108 37.3714C32.8144 37.7887 33.2709 38.6422 32.8715 38.7939C32.7384 38.8508 32.0347 38.8698 31.312 38.8319L29.9998 38.775L29.9428 37.9404C29.9047 37.4093 29.9618 37.049 30.1139 36.9541C30.4562 36.7455 31.4071 36.9541 32.1108 37.3714Z" fill="#252525"/>
<path d="M38.1399 32.7619C37.6264 32.8378 37.6074 32.9136 37.9878 33.8051C38.1399 34.1844 38.273 34.5448 38.273 34.5827C38.273 34.6396 37.9497 34.8483 37.5694 35.0569C36.0099 35.8535 35.04 37.4278 35.04 39.1728C35.04 39.628 35.0781 40.0073 35.1161 40.0073C35.1541 40.0073 36.2191 39.7987 37.4933 39.5331C39.8325 39.04 40.1748 39.04 40.1748 39.5521C40.1748 39.7987 40.346 39.8556 41.2208 39.8935C41.7342 39.9125 41.6962 39.7987 40.384 36.4795C39.7754 34.9242 39.2049 33.4637 39.1478 33.2361C38.9957 32.7809 38.7485 32.6481 38.1399 32.7619ZM39.3761 37.7123C39.338 37.902 38.8626 38.0727 37.9117 38.2434C37.151 38.3951 36.4664 38.452 36.4093 38.3951C36.3332 38.3382 36.4854 37.902 36.7326 37.4468C37.0369 36.8778 37.4172 36.4984 37.9688 36.2139L38.7485 35.8346L39.0908 36.6312C39.281 37.0674 39.3951 37.5416 39.3761 37.7123Z" fill="#252525"/>
<path d="M42.3234 32.7431C42.1903 32.781 42.0762 33.0845 42.0762 33.3879V33.938H44.1681C45.3282 33.938 46.2601 33.9949 46.2601 34.0518C46.2601 34.1087 45.3092 35.1898 44.1681 36.4606C42.3614 38.4521 42.0762 38.8504 42.1142 39.3436L42.1713 39.9126H45.119H48.0667L48.1238 39.3057L48.1808 38.6987L45.9938 38.6418L43.8068 38.5849L44.5104 37.8073C47.23 34.8294 47.7054 34.2414 47.8956 33.6914C48.2569 32.6862 48.0477 32.6103 45.138 32.6292C43.7117 32.6292 42.4375 32.6862 42.3234 32.7431Z" fill="#252525"/>
<path d="M51.2616 32.8952C51.2236 33.0279 51.3187 33.4452 51.4708 33.8435C51.642 34.2418 51.7751 34.5832 51.7751 34.6212C51.7751 34.6591 51.4328 34.8677 51.0334 35.0574C50.0825 35.5506 49.0556 36.7644 48.7703 37.7128C48.5231 38.5094 48.466 40.0078 48.6752 40.0078C48.7513 40.0078 49.8163 39.7802 51.0714 39.4957L53.3535 39.0026L53.6959 39.4578C54.1142 40.0078 55.0081 40.1406 55.0081 39.6474C55.0081 39.4578 54.4185 37.8266 53.6959 36.0058C52.4597 32.8952 52.3646 32.7055 51.8702 32.6865C51.5849 32.6676 51.3187 32.7814 51.2616 32.8952ZM52.8781 37.6938C52.8401 37.8456 52.6879 37.9973 52.5358 38.0352C52.3836 38.0542 51.7561 38.187 51.1475 38.3197C50.5579 38.4335 50.0064 38.4904 49.9494 38.4525C49.7782 38.2628 50.3678 37.0869 50.9003 36.5558C51.718 35.7592 52.1935 35.7782 52.5928 36.6696C52.783 37.0869 52.8971 37.5421 52.8781 37.6938Z" fill="#252525"/>
<path d="M28.0029 45.6975C28.0029 46.3044 27.9839 46.3044 30.0568 46.3234C30.4752 46.3234 30.4752 46.3423 30.4752 49.3202V52.3359H31.1408H31.7874L31.8445 49.3391C31.8825 47.12 31.9586 46.3613 32.1488 46.3423C32.2629 46.3234 32.8144 46.3044 33.3469 46.2854C34.2788 46.2665 34.2978 46.2475 34.2407 45.7354L34.1837 45.2233L31.1028 45.1664L28.0029 45.1285V45.6975Z" fill="#252525"/>
<path d="M35.1732 45.2423C35.0971 45.3182 35.04 46.9494 35.04 48.865V52.355L35.6676 52.2981L36.2762 52.2412V51.0083V49.7755L36.9608 49.7186C37.6074 49.6617 37.7025 49.7375 38.7295 50.9894L39.8135 52.336H40.9926C41.6392 52.336 42.9324 52.1653 43.8642 51.9567C45.9942 51.4825 46.2034 51.4825 46.3555 51.9567C46.4506 52.2412 46.6408 52.336 47.1353 52.336C47.4966 52.336 47.7819 52.2601 47.7819 52.1843C47.7819 51.9187 45.2905 45.6027 45.0813 45.3561C44.8722 45.1096 44.1305 45.0337 43.9213 45.2423C43.8642 45.3182 43.9213 45.6596 44.0734 46.02C44.4918 47.0252 44.4157 47.2718 43.5599 47.6891C42.4379 48.2202 41.6772 49.2634 41.3159 50.7617L40.9926 52.0136L39.8895 50.5531L38.7865 49.1116L39.3761 48.5426C40.1748 47.7839 40.5742 46.9683 40.6122 46.02L40.6502 45.2234L37.9688 45.1665C36.5044 45.1475 35.2492 45.1854 35.1732 45.2423ZM39.2239 46.6649C39.2239 47.5184 37.0939 48.884 36.4093 48.4667C36.2572 48.3719 36.2191 47.1011 36.3523 46.3993C36.3523 46.3235 37.0179 46.2666 37.7976 46.2666C39.1288 46.2666 39.2239 46.2855 39.2239 46.6649ZM45.3096 49.2254C45.5188 49.7186 45.6899 50.1738 45.6899 50.2496C45.6899 50.3255 45.1955 50.4962 44.6059 50.61C43.9973 50.7238 43.3127 50.8756 43.0845 50.9325C42.514 51.0842 42.495 50.591 43.0274 49.7186C43.3698 49.1875 44.4157 48.3529 44.7771 48.3529C44.8531 48.3529 45.0813 48.7512 45.3096 49.2254Z" fill="#252525"/>
<path d="M48.8655 45.2423C48.7895 45.3181 48.7324 46.9493 48.7324 48.865V52.3359H49.303H49.8735L49.8354 48.7701C49.7784 45.3561 49.7594 45.2233 49.398 45.1664C49.1698 45.1285 48.9416 45.1664 48.8655 45.2423Z" fill="#252525"/>
<path d="M51.4713 45.3751C51.4332 45.5079 51.4142 47.1011 51.4332 48.9219L51.4903 52.2412L52.1179 52.2981L52.7264 52.355V49.7944C52.7264 48.3719 52.7835 47.2149 52.8405 47.2149C52.9356 47.2149 54.8184 49.1875 55.9404 50.4583C56.3208 50.9135 56.53 51.3497 56.53 51.748C56.53 52.2981 56.568 52.336 57.1956 52.336H57.8612L57.8232 48.7702L57.7661 45.2234H57.1956H56.6251L56.53 47.2908L56.4349 49.3582L55.7883 48.6185C53.9436 46.4752 52.4982 45.1285 52.0418 45.1285C51.7756 45.1285 51.5283 45.2423 51.4713 45.3751Z" fill="#252525"/>
<path d="M59.5159 45.2423C59.4399 45.3181 59.3828 46.9493 59.3828 48.865V52.3359H61.8551H64.3274V51.7669V51.2169L62.4827 51.16L60.619 51.1031V50.4392C60.5999 49.3202 60.619 49.3012 62.3496 49.3012H63.947V48.7322V48.1822L62.2925 48.1253L60.619 48.0684L60.5999 47.4045C60.5809 46.2854 60.5999 46.2665 62.5588 46.2665H64.3464L64.2894 45.7354L64.2323 45.2233L61.9312 45.1664C60.676 45.1474 59.592 45.1854 59.5159 45.2423Z" fill="#252525"/>
<path d="M65.6582 48.7322V52.3359H68.1305H70.6218L70.5457 51.8049L70.4697 51.2927L68.625 51.2358L66.7802 51.1789L66.8373 50.2875L66.8943 49.396L68.5679 49.3391L70.2415 49.2822L70.1844 48.7701C70.1273 48.258 70.1083 48.258 68.4538 48.2011L66.7802 48.1442L66.8373 47.2528L66.8943 46.3613L68.7581 46.3044L70.6218 46.2475L70.5457 45.7354L70.4697 45.2233L68.0734 45.1664L65.6582 45.1095V48.7322Z" fill="#252525"/>
<path d="M28.6877 57.8177C28.6307 57.8936 28.6116 58.785 28.6497 59.7524C28.6877 61.137 28.8018 61.7439 29.1441 62.4457C29.9048 64.0389 31.4833 64.8545 33.8415 64.8545H35.0396L35.0016 61.2887L34.9445 57.7418L34.3359 57.6849L33.7084 57.628V60.6628V63.7165L32.9096 63.6027C30.7036 63.2613 29.9048 62.1422 29.9048 59.392V57.647H29.3533C29.03 57.647 28.7448 57.7229 28.6877 57.8177Z" fill="#252525"/>
<path d="M36.5615 61.2503V64.8541H37.1321H37.6836L37.7406 63.3746C37.7977 61.9901 37.8167 61.9142 38.2731 61.8573C38.9197 61.7625 40.0608 62.1228 40.4601 62.578C40.6503 62.7867 40.8975 63.3557 41.0307 63.8488C41.2399 64.6834 41.3159 64.7592 41.8865 64.8161L42.514 64.873L42.3809 64.0954C42.2098 63.0522 41.7914 62.1987 41.1638 61.6866L40.6693 61.2693L41.1638 60.7382C41.7914 60.0933 42.2668 58.9933 42.2668 58.2156C42.2668 57.7035 42.2098 57.6466 41.6963 57.6466C41.2018 57.6466 41.1258 57.7225 41.0116 58.3484C40.7454 59.9226 39.6234 60.852 38.2731 60.6434C37.8167 60.5865 37.7977 60.5106 37.7406 59.1071L37.6836 57.6466H37.1321H36.5615V61.2503Z" fill="#252525"/>
<path d="M43.5977 61.2508V64.8545H44.1682H44.7387V63.5268C44.7387 62.3888 44.7958 62.1991 45.081 62.1991C45.2522 62.1991 45.5755 62.1612 45.7847 62.1043C46.089 62.0284 46.3932 62.3129 47.211 63.432L48.257 64.8545H49.3029C50.1968 64.8545 53.0494 64.3613 54.2856 63.982C54.5138 63.9061 54.704 64.0389 54.8561 64.3613C55.0273 64.7407 55.1984 64.8545 55.7119 64.8545C56.0542 64.8545 56.3395 64.7786 56.3395 64.6838C56.3395 64.589 56.1303 64.0579 55.883 63.5078C55.6358 62.9388 55.0273 61.4025 54.5328 60.0558L53.6199 57.647H52.9924C52.2507 57.647 52.2317 57.7229 52.631 58.6523C53.0114 59.5817 52.9924 59.6575 52.3838 59.9041C51.1477 60.4162 49.6833 62.4836 49.6833 63.7544C49.6833 64.0579 49.6072 64.2855 49.5121 64.2855C49.4171 64.2855 48.9796 63.7923 48.5232 63.1854C48.0858 62.5974 47.6484 62.0663 47.5533 62.0474C47.249 61.9146 47.4202 61.3835 47.8766 61.0231C48.5232 60.53 49.0557 59.4299 49.1508 58.5005L49.2079 57.7418L46.3932 57.6849L43.5977 57.628V61.2508ZM47.7815 59.0695C47.7815 59.5627 46.6405 60.6628 45.9178 60.8714C44.7577 61.1749 44.7387 61.1749 44.7387 59.9231V58.785H46.2601C47.4773 58.785 47.7815 58.8419 47.7815 59.0695ZM53.7721 61.5353C54.2856 62.7871 54.2856 62.7871 52.7261 63.1664C51.9274 63.3561 51.2237 63.432 51.1286 63.3371C50.6912 62.9009 52.4218 60.8714 53.2206 60.8714C53.3727 60.8714 53.6009 61.1749 53.7721 61.5353Z" fill="#252525"/>
<path d="M57.1764 57.8932C57.1383 58.0259 57.1193 59.6192 57.1383 61.44L57.1954 64.7592L57.823 64.8161L58.4315 64.873V61.2693V57.6466H57.861C57.5377 57.6466 57.2334 57.7604 57.1764 57.8932Z" fill="#252525"/>
<path d="M59.9531 61.2693V64.873L60.5807 64.8161L61.1893 64.7592L61.2463 62.2366C61.2653 60.8331 61.3604 59.733 61.4365 59.7709C61.5316 59.8088 62.3874 60.6813 63.3383 61.7245C64.7836 63.2988 65.0879 63.735 65.0879 64.2282C65.0879 64.7972 65.1449 64.8541 65.6584 64.8541H66.2289V61.2503V57.6466H65.6584H65.0879V59.6381C65.0879 60.7382 65.0118 61.6297 64.9167 61.6297C64.8216 61.6297 64.5174 61.3452 64.2321 61.0038C63.9468 60.6813 63.1291 59.7709 62.4064 59.0122C61.3604 57.8932 61.0181 57.6466 60.5427 57.6466H59.9531V61.2693Z" fill="#252525"/>
<path d="M67.9404 61.2503V64.873L70.3747 64.8161L72.7899 64.7592V64.2851C72.7899 63.8109 72.7709 63.8109 70.9262 63.754L69.0815 63.6971V62.7677V61.8194H70.7931H72.5047V61.2503V60.6813H70.7931H69.0815V59.733V58.8036L70.9262 58.7467C72.7709 58.6898 72.7709 58.6898 72.7709 58.2156V57.7414L70.3557 57.6845L67.9404 57.6276V61.2503Z" fill="#252525"/>
</svg>
