<svg width="30" height="30" viewBox="0 0 30 30" fill="none" xmlns="http://www.w3.org/2000/svg">
<path fill-rule="evenodd" clip-rule="evenodd" d="M3.8816 0.603875C3.45667 0.206435 2.89463 -0.00993411 2.3139 0.000350541C1.73317 0.0106352 1.17909 0.246771 0.768385 0.65901C0.357683 1.07125 0.122427 1.6274 0.112181 2.21031C0.101934 2.79321 0.317497 3.35735 0.713456 3.78388L11.8319 14.9439L0.713456 26.1039C0.493219 26.3099 0.316574 26.5583 0.194056 26.8343C0.0715389 27.1103 0.00565934 27.4082 0.000348858 27.7103C-0.00496162 28.0124 0.0504051 28.3125 0.163146 28.5927C0.275888 28.8728 0.443693 29.1273 0.656553 29.341C0.869413 29.5546 1.12297 29.7231 1.40209 29.8362C1.68121 29.9494 1.98017 30.005 2.28116 29.9997C2.58214 29.9943 2.87897 29.9282 3.15394 29.8052C3.42891 29.6822 3.67638 29.5049 3.8816 29.2839L15 18.1239L26.1184 29.2839C26.3236 29.5049 26.5711 29.6822 26.8461 29.8052C27.121 29.9282 27.4179 29.9943 27.7188 29.9997C28.0198 30.005 28.3188 29.9494 28.5979 29.8362C28.877 29.7231 29.1306 29.5546 29.3434 29.341C29.5563 29.1273 29.7241 28.8728 29.8369 28.5927C29.9496 28.3125 30.005 28.0124 29.9997 27.7103C29.9943 27.4082 29.9285 27.1103 29.8059 26.8343C29.6834 26.5583 29.5068 26.3099 29.2865 26.1039L18.1681 14.9439L29.2865 3.78388C29.6825 3.35735 29.8981 2.79321 29.8878 2.21031C29.8776 1.6274 29.6423 1.07125 29.2316 0.65901C28.8209 0.246771 28.2668 0.0106352 27.6861 0.000350541C27.1054 -0.00993411 26.5433 0.206435 26.1184 0.603875L15 11.7639L3.8816 0.603875Z" fill="#10316B"/>
</svg>
