<svg width="30" height="30" viewBox="0 0 30 30" fill="none" xmlns="http://www.w3.org/2000/svg">
<path d="M13.7944 6.64712C13.9772 6.62102 14.1531 6.55917 14.3121 6.46509C14.471 6.37101 14.6098 6.24656 14.7206 6.09882C14.8314 5.95109 14.9121 5.78298 14.9579 5.60408C15.0038 5.42519 15.014 5.23901 14.9879 5.05619C14.9618 4.87336 14.8999 4.69747 14.8058 4.53855C14.7117 4.37963 14.5873 4.24079 14.4396 4.12997C14.2918 4.01915 14.1237 3.93851 13.9448 3.89266C13.7659 3.84681 13.5797 3.83665 13.3969 3.86275C11.3298 4.16018 9.38633 5.02701 7.78391 6.36622C6.18148 7.70542 4.98338 9.46417 4.32369 11.4456C3.66401 13.427 3.56877 15.5529 4.04864 17.5854C4.52851 19.6179 5.56456 21.4767 7.04082 22.9539C8.51708 24.431 10.3753 25.4681 12.4075 25.9492C14.4397 26.4303 16.5657 26.3363 18.5475 25.6778C20.5293 25.0192 22.2887 23.8222 23.6289 22.2205C24.969 20.6189 25.837 18.6759 26.1357 16.609C26.1884 16.2398 26.0923 15.8647 25.8684 15.5664C25.6446 15.268 25.3115 15.0708 24.9422 15.0181C24.573 14.9653 24.1979 15.0615 23.8996 15.2853C23.6012 15.5091 23.404 15.8423 23.3513 16.2115C23.1268 17.7615 22.4755 19.2184 21.4702 20.4193C20.4649 21.6201 19.1452 22.5176 17.6589 23.0112C16.1726 23.5048 14.5783 23.5751 13.0543 23.2142C11.5303 22.8533 10.1368 22.0755 9.02974 20.9677C7.92265 19.86 7.14564 18.466 6.78564 16.9418C6.42565 15.4177 6.49688 13.8234 6.99136 12.3373C7.48584 10.8513 8.38407 9.53222 9.58554 8.52762C10.787 7.52301 12.2443 6.87067 13.7944 6.64712ZM18.75 4.38962C18.3982 4.2653 18.0114 4.28584 17.6747 4.44671C17.338 4.60758 17.079 4.89561 16.9547 5.24744C16.8304 5.59926 16.8509 5.98606 17.0118 6.32275C17.1727 6.65944 17.4607 6.91843 17.8125 7.04275C18.3769 7.2415 18.915 7.49837 19.4175 7.80775C19.5748 7.9102 19.751 7.98012 19.9357 8.0134C20.1205 8.04668 20.31 8.04265 20.4931 8.00153C20.6763 7.96041 20.8493 7.88304 21.0021 7.77399C21.1549 7.66493 21.2843 7.5264 21.3827 7.36655C21.481 7.2067 21.5464 7.02877 21.575 6.84325C21.6035 6.65773 21.5946 6.46838 21.5488 6.28635C21.503 6.10432 21.4213 5.9333 21.3083 5.78337C21.1954 5.63344 21.0536 5.50764 20.8913 5.41337C20.2158 4.99728 19.498 4.65411 18.75 4.38962ZM24.5907 9.11462C24.4964 8.95231 24.3706 8.8105 24.2207 8.69758C24.0707 8.58464 23.8997 8.50287 23.7177 8.45708C23.5357 8.41129 23.3463 8.4024 23.1608 8.43094C22.9753 8.45948 22.7973 8.52487 22.6375 8.62326C22.4776 8.72164 22.3391 8.85104 22.23 9.00381C22.121 9.15658 22.0436 9.32964 22.0025 9.51278C21.9614 9.69592 21.9574 9.88544 21.9906 10.0702C22.0239 10.2549 22.0938 10.4311 22.1963 10.5884C22.5038 11.0871 22.7588 11.6215 22.9575 12.1821C23.0862 12.5279 23.3457 12.8093 23.6799 12.9656C24.0142 13.1218 24.3964 13.1405 24.7443 13.0175C25.0922 12.8944 25.3777 12.6397 25.5395 12.308C25.7012 11.9764 25.7261 11.5945 25.6088 11.2446C25.3454 10.5007 25.0042 9.78675 24.5907 9.11462ZM15 10.7815C15 10.4085 14.8519 10.0509 14.5882 9.78713C14.3244 9.52341 13.9667 9.37525 13.5938 9.37525C13.2208 9.37525 12.8631 9.52341 12.5994 9.78713C12.3357 10.0509 12.1875 10.4085 12.1875 10.7815V16.4065C12.1875 17.1827 12.8175 17.8127 13.5938 17.8127H17.3438C17.7167 17.8127 18.0744 17.6646 18.3382 17.4009C18.6019 17.1371 18.75 16.7795 18.75 16.4065C18.75 16.0335 18.6019 15.6759 18.3382 15.4121C18.0744 15.1484 17.7167 15.0002 17.3438 15.0002H15V10.7815Z" fill="white"/>
</svg>
