<svg width="30" height="30" viewBox="0 0 30 30" fill="none" xmlns="http://www.w3.org/2000/svg">
<path d="M27.1376 10.8871C28.7001 9.32461 27.9876 7.49961 27.1376 6.61211L23.3876 2.86211C21.8126 1.29961 20.0001 2.01211 19.1126 2.86211L16.9876 4.99961H13.7501C11.3751 4.99961 10.0001 6.24961 9.30009 7.68711L3.75009 13.2371V18.2371L2.86259 19.1121C1.30009 20.6871 2.01259 22.4996 2.86259 23.3871L6.61259 27.1371C7.28759 27.8121 8.01259 28.0621 8.70009 28.0621C9.58759 28.0621 10.4001 27.6246 10.8876 27.1371L14.2626 23.7496H18.7501C20.8751 23.7496 21.9501 22.4246 22.3376 21.1246C23.7501 20.7496 24.5251 19.6746 24.8376 18.6246C26.7751 18.1246 27.5001 16.2871 27.5001 14.9996V11.2496H26.7626L27.1376 10.8871ZM25.0001 14.9996C25.0001 15.5621 24.7626 16.2496 23.7501 16.2496H22.5001V17.4996C22.5001 18.0621 22.2626 18.7496 21.2501 18.7496H20.0001V19.9996C20.0001 20.5621 19.7626 21.2496 18.7501 21.2496H13.2376L9.13759 25.3496C8.75009 25.7121 8.52509 25.4996 8.38759 25.3621L4.65009 21.6371C4.28759 21.2496 4.50009 21.0246 4.63759 20.8871L6.25009 19.2621V14.2621L8.75009 11.7621V13.7496C8.75009 15.2621 9.75009 17.4996 12.5001 17.4996C15.2501 17.4996 16.2501 15.2621 16.2501 13.7496H25.0001V14.9996ZM25.3626 9.11211L23.2376 11.2496H13.7501V13.7496C13.7501 14.3121 13.5126 14.9996 12.5001 14.9996C11.4876 14.9996 11.2501 14.3121 11.2501 13.7496V9.99961C11.2501 9.42461 11.4626 7.49961 13.7501 7.49961H18.0126L20.8626 4.64961C21.2501 4.28711 21.4751 4.49961 21.6126 4.63711L25.3501 8.36211C25.7126 8.74961 25.5001 8.97461 25.3626 9.11211Z" fill="white"/>
</svg>
