<svg width="81" height="65" viewBox="0 0 81 65" fill="none" xmlns="http://www.w3.org/2000/svg">
<path d="M38.2384 38.2227C33.5606 31.8799 23.6512 28.2709 12.3871 28.8077C11.3501 28.8571 10.4928 28.8875 10.4821 28.8751C10.4708 28.8628 11.2583 27.9436 12.2309 26.8324L13.9993 24.812L15.47 24.8681C25.2096 25.2396 32.7523 29.0439 37.1971 35.8268C37.8532 36.828 39.0096 39.0529 38.8738 39.0529C38.8611 39.0529 38.5752 38.6793 38.2384 38.2227ZM39.9453 38.8509C40.5686 37.0536 42.5102 34.2217 44.4574 32.27C49.0557 27.6609 55.4326 25.1558 63.292 24.8709L64.7628 24.8176L66.5295 26.8352C67.5012 27.9448 68.2882 28.8628 68.2783 28.8751C68.2682 28.8874 67.412 28.8571 66.3749 28.8076C58.4866 28.4317 50.4103 30.2782 45.5011 33.5799C43.3522 35.0251 41.3506 36.9559 40.0231 38.864L39.8588 39.1003L39.9453 38.8509ZM39.761 36.7685C39.7607 36.7384 39.6974 36.2643 39.6203 35.7149C38.7204 29.3038 39.9944 22.1993 42.8201 17.8722C47.2598 11.0735 53.999 13.0212 57.1151 22.0036C57.329 22.6202 57.504 23.156 57.504 23.1943C57.504 23.2325 57.0664 23.3614 56.5315 23.4807C49.3946 25.0721 43.2172 29.721 40.3155 35.6845C40.0107 36.3108 39.7612 36.7985 39.761 36.7685ZM47.3313 12.9072C44.9121 12.3207 43.0883 10.0104 43.0829 7.52556L43.0818 6.88327L42.8209 6.94514C42.0833 7.12005 41.1943 7.82767 40.7185 8.61853C40.3506 9.22999 39.9212 9.01483 39.3338 7.92488C39.2295 7.73118 39.0247 7.37936 38.8789 7.14305C38.262 6.14354 38.3292 5.2911 39.0671 4.7557C39.2857 4.59709 39.4672 4.42421 39.4704 4.37153C39.4928 4.00191 42.3406 4.01276 43.3798 4.38642L43.8587 4.55864L44.0558 4.27576C46.2427 1.13675 51.1055 1.08829 53.2356 4.18428L53.5107 4.58404L53.9656 4.46736C55.2468 4.13877 57.4518 4.08046 57.6911 4.36883C57.7522 4.44237 57.9182 4.52804 58.06 4.5592C58.4376 4.64213 58.9676 5.47688 58.8898 5.86603C58.7811 6.40976 57.9876 7.93743 57.5446 8.45594C57.0766 9.00372 56.9037 9.08056 56.7567 8.80595C56.6316 8.57231 54.707 6.86182 54.4708 6.77446C54.2878 6.70676 54.2782 6.73974 54.2768 7.43552C54.2701 11.0767 50.8601 13.7628 47.3313 12.9072Z" fill="#EFC822"/>
<path d="M37.6259 39.4655C31.2862 35.5935 24.481 33.6952 16.9409 33.6952C12.5666 33.6952 8.9829 34.2031 5.94243 35.2541C5.63379 35.3608 5.36312 35.43 5.34096 35.4078C5.31877 35.3856 5.89153 34.3095 6.61374 33.0164C7.78448 30.9202 7.95772 30.6575 8.21151 30.594C10.6369 29.9866 16.5257 29.7712 19.6452 30.1757C26.0527 31.0065 31.7666 33.5729 36.5252 37.7575C37.4229 38.5469 38.8812 40.0684 38.801 40.132C38.7809 40.1479 38.2521 39.848 37.6259 39.4655ZM39.9506 40.0932C39.9506 39.9497 42.1775 37.7524 43.0477 37.0375C47.0516 33.7477 51.9157 31.4721 56.9824 30.5184C61.1092 29.7416 66.6527 29.7718 70.4986 30.5919C70.8107 30.6585 70.8858 30.7694 72.141 33.0174C72.8644 34.313 73.4394 35.39 73.4187 35.4106C73.3981 35.4313 73.1287 35.3609 72.8201 35.2542C68.0215 33.5957 60.6088 33.1928 54.7526 34.2722C50.0477 35.1394 45.3353 36.9279 41.2078 39.4129C40.5163 39.8292 39.9506 40.1354 39.9506 40.0932ZM16.4962 39.0833C16.5646 39.0559 16.6465 39.0592 16.678 39.0912C16.7095 39.1227 16.6535 39.1451 16.5535 39.141C16.443 39.1366 16.4205 39.1136 16.4962 39.0833ZM27.1233 39.0833C27.1918 39.0559 27.2736 39.0592 27.3052 39.0912C27.3367 39.1227 27.2806 39.1451 27.1806 39.141C27.0701 39.1366 27.0475 39.1136 27.1233 39.0833ZM51.5087 39.0833C51.5772 39.0559 51.6591 39.0592 51.6906 39.0912C51.7221 39.1227 51.6661 39.1451 51.5661 39.141C51.4556 39.1366 51.4331 39.1136 51.5087 39.0833ZM62.1359 39.0833C62.2043 39.0559 62.2862 39.0592 62.3177 39.0912C62.3492 39.1227 62.2932 39.1451 62.1932 39.141C62.0827 39.1366 62.0602 39.1136 62.1359 39.0833ZM17.6289 38.9904C17.6941 38.9641 17.8008 38.9641 17.8661 38.9904C17.9313 39.0168 17.878 39.0383 17.7475 39.0383C17.617 39.0383 17.5636 39.0168 17.6289 38.9904ZM25.789 38.9904C25.8542 38.9641 25.9609 38.9641 26.0262 38.9904C26.0914 39.0168 26.0381 39.0383 25.9076 39.0383C25.7771 39.0383 25.7237 39.0168 25.789 38.9904ZM52.7363 38.9904C52.8015 38.9641 52.9083 38.9641 52.9735 38.9904C53.0388 39.0168 52.9854 39.0383 52.8549 39.0383C52.7245 39.0383 52.6711 39.0168 52.7363 38.9904ZM60.8964 38.9904C60.9617 38.9641 61.0684 38.9641 61.1336 38.9904C61.1989 39.0168 61.1455 39.0383 61.015 39.0383C60.8846 39.0383 60.8312 39.0168 60.8964 38.9904ZM19.5277 38.8912C19.6457 38.8685 19.8165 38.8694 19.9072 38.8935C19.998 38.9172 19.9016 38.9358 19.6926 38.9347C19.4839 38.9337 19.4096 38.9139 19.5277 38.8912ZM23.7975 38.8912C23.9155 38.8685 24.0863 38.8694 24.177 38.8935C24.2678 38.9172 24.1714 38.9358 23.9624 38.9347C23.7537 38.9337 23.6795 38.9139 23.7975 38.8912ZM54.6351 38.8912C54.7532 38.8685 54.9239 38.8694 55.0147 38.8935C55.1054 38.9172 55.0091 38.9358 54.8001 38.9347C54.5913 38.9337 54.5171 38.9139 54.6351 38.8912ZM58.9049 38.8912C59.023 38.8685 59.1938 38.8694 59.2845 38.8935C59.3753 38.9172 59.2789 38.9358 59.0699 38.9347C58.8612 38.9337 58.7869 38.9139 58.9049 38.8912ZM39.6659 37.07C39.6659 36.8551 38.9616 35.435 38.3909 34.4993C35.164 29.208 29.3571 25.2052 22.895 23.8177C21.977 23.6206 22.0054 23.7295 22.4986 22.2929C23.7019 18.7887 25.6958 16.0438 27.8855 14.877C32.6844 12.3201 37.7205 16.8232 39.5606 25.3166C39.7497 26.1894 39.752 26.2732 39.6139 27.2563C39.2158 30.0888 39.2961 34.7525 39.7752 36.6221C39.8404 36.8765 39.8381 37.0214 39.7674 37.0918C39.6949 37.1643 39.6659 37.158 39.6659 37.07ZM64.4131 35.3828C64.4816 35.3554 64.5634 35.3588 64.595 35.3907C64.6265 35.4222 64.5704 35.4446 64.4704 35.4406C64.3599 35.4361 64.3374 35.4131 64.4131 35.3828ZM15.0729 35.2879C15.1414 35.2605 15.2232 35.2639 15.2548 35.2958C15.2862 35.3273 15.2302 35.3497 15.1302 35.3456C15.0197 35.3412 14.9971 35.3183 15.0729 35.2879ZM23.8023 35.2879C23.8708 35.2605 23.9526 35.2639 23.9842 35.2958C24.0157 35.3273 23.9596 35.3497 23.8596 35.3456C23.7491 35.3412 23.7267 35.3183 23.8023 35.2879ZM63.5592 35.2879C63.6276 35.2605 63.7095 35.2639 63.741 35.2958C63.7725 35.3273 63.7165 35.3497 63.6165 35.3456C63.506 35.3412 63.4834 35.3183 63.5592 35.2879ZM16.1166 35.193C16.1851 35.1655 16.267 35.1689 16.2985 35.2008C16.33 35.2323 16.2739 35.2549 16.174 35.2507C16.0635 35.2462 16.041 35.2234 16.1166 35.193ZM22.8535 35.193C22.9219 35.1655 23.0038 35.1689 23.0353 35.2008C23.0668 35.2323 23.0108 35.2549 22.9108 35.2507C22.8003 35.2462 22.7778 35.2234 22.8535 35.193ZM55.7786 35.193C55.847 35.1655 55.9289 35.1689 55.9604 35.2008C55.9919 35.2323 55.9359 35.2549 55.8359 35.2507C55.7254 35.2462 55.7029 35.2234 55.7786 35.193ZM62.5154 35.193C62.5839 35.1655 62.6658 35.1689 62.6973 35.2008C62.7288 35.2323 62.6727 35.2549 62.5727 35.2507C62.4622 35.2462 62.4398 35.2234 62.5154 35.193ZM17.5832 35.0972C17.6756 35.0731 17.8036 35.0748 17.8679 35.1005C17.9321 35.1265 17.8566 35.1463 17.7 35.1442C17.5435 35.142 17.4909 35.1213 17.5832 35.0972ZM21.2819 35.0976C21.3733 35.0737 21.5227 35.0737 21.614 35.0976C21.7054 35.1214 21.6306 35.1409 21.448 35.1409C21.2653 35.1409 21.1906 35.1214 21.2819 35.0976ZM57.1485 35.0976C57.2398 35.0737 57.3892 35.0737 57.4806 35.0976C57.5719 35.1214 57.4972 35.1409 57.3145 35.1409C57.1319 35.1409 57.0571 35.1214 57.1485 35.0976ZM60.849 35.0976C60.9403 35.0737 61.0898 35.0737 61.1811 35.0976C61.2724 35.1214 61.1977 35.1409 61.015 35.1409C60.8324 35.1409 60.7577 35.1214 60.849 35.0976ZM29.2285 13.29C26.8138 12.6287 25.0569 10.3517 25.0569 7.88349C25.0569 2.90539 31.0682 0.383922 34.585 3.88689C37.5363 6.8266 36.4287 11.7452 32.4956 13.1653C31.7531 13.4334 29.9969 13.5004 29.2285 13.29Z" fill="#0E6FB6"/>
<path d="M2.66511 42.0752C2.66735 42.0566 2.91317 41.1079 3.21071 39.967L3.7517 37.8926L4.22611 37.7134C11.2937 35.0447 21.0035 34.3759 28.1533 36.0652C32.0145 36.9775 37.0899 39.3912 39.221 41.3285C39.2634 41.367 38.7354 41.2341 38.0476 41.0331C27.1624 37.8512 12.6676 38.269 2.81843 42.0485C2.73158 42.0818 2.66257 42.0939 2.66511 42.0752ZM74.868 41.6963C65.984 38.6184 54.6936 38.0281 44.5048 40.1086C43.0835 40.3988 40.605 41.0216 39.8554 41.2768L39.4285 41.4222L39.7131 41.1824C41.0378 40.0664 44.3301 38.2174 46.5449 37.3457C54.1739 34.343 64.1599 34.3541 73.4747 37.3758L75.0104 37.8739L75.5471 39.9814C75.8422 41.1405 76.0557 42.0856 76.0215 42.0816C75.9873 42.0771 75.4682 41.9042 74.868 41.6963Z" fill="#302682"/>
<path d="M10.0215 47.783V43.7148H11.044L12.5198 46.3708H11.9822L13.4158 43.7148H14.4383L14.4489 47.783H13.3157L13.3051 45.5978H13.4843L12.504 47.4169H11.9558L10.9333 45.5978H11.1547V47.783H10.0215Z" fill="#0E6FB6"/>
<path d="M15.0499 47.7831V44.6041H16.2411V47.7831H15.0499ZM15.6455 44.3484C15.4277 44.3484 15.2537 44.2845 15.1237 44.1566C14.9937 44.0288 14.9287 43.8699 14.9287 43.6801C14.9287 43.4902 14.9937 43.3314 15.1237 43.2035C15.2537 43.0756 15.4277 43.0117 15.6455 43.0117C15.8634 43.0117 16.0373 43.0718 16.1673 43.1919C16.2973 43.312 16.3623 43.467 16.3623 43.6568C16.3623 43.8583 16.2973 44.0249 16.1673 44.1566C16.0373 44.2845 15.8634 44.3484 15.6455 44.3484Z" fill="#0E6FB6"/>
<path d="M20.3364 47.7835L19.7355 46.3248L20.6948 45.7087L21.7436 47.7835H20.3364ZM19.3718 46.7258V45.7203H20.4418V46.7258H19.3718ZM20.816 46.3364L19.6986 46.2201L20.4312 44.6045H21.6856L20.816 46.3364ZM17.9171 47.7835H16.5151L17.5587 45.7087L18.518 46.3248L17.9171 47.7835ZM19.7197 47.7835H18.5443V44.6045H19.7197V47.7835ZM18.8869 46.7258H17.817V45.7203H18.8869V46.7258ZM17.4375 46.3364L16.5731 44.6045H17.8275L18.5496 46.2201L17.4375 46.3364Z" fill="#0E6FB6"/>
<path d="M22.0176 47.7835V44.6045H23.2035V45.7203H24.0152V44.6045H25.201V47.7835H24.0152V46.749H23.2035V47.7835H22.0176Z" fill="#0E6FB6"/>
<path d="M27.4411 47.783V47.2193L27.3568 47.0682V45.9988C27.3568 45.8439 27.3128 45.7257 27.225 45.6443C27.1407 45.563 27.0019 45.5223 26.8086 45.5223C26.6786 45.5223 26.5468 45.5455 26.4133 45.592C26.2798 45.6346 26.1656 45.6947 26.0707 45.7722L25.6912 44.9062C25.8599 44.79 26.0619 44.7009 26.2974 44.6389C26.5328 44.5769 26.7629 44.5459 26.9878 44.5459C27.4833 44.5459 27.8663 44.6679 28.1368 44.912C28.4109 45.1561 28.5479 45.5436 28.5479 46.0744V47.783L27.4411 47.783ZM26.6241 47.8412C26.3887 47.8412 26.1919 47.7966 26.0338 47.7075C25.8757 47.6184 25.7562 47.5002 25.6754 47.353C25.5946 47.2019 25.5542 47.0353 25.5542 46.8532C25.5542 46.6478 25.6016 46.4735 25.6965 46.3301C25.7914 46.1868 25.9354 46.0783 26.1287 46.0047C26.3255 45.931 26.5732 45.8942 26.8719 45.8942H27.4727V46.5277H27.0616C26.9351 46.5277 26.842 46.551 26.7823 46.5974C26.726 46.6401 26.6979 46.7059 26.6979 46.795C26.6979 46.8687 26.7225 46.9306 26.7717 46.981C26.8244 47.0275 26.8947 47.0508 26.9825 47.0508C27.0634 47.0508 27.1371 47.0275 27.2039 46.981C27.2742 46.9307 27.3251 46.8532 27.3568 46.7486L27.5096 47.1379C27.4639 47.3743 27.3673 47.5506 27.2197 47.6668C27.0721 47.783 26.8736 47.8412 26.6241 47.8412Z" fill="#0E6FB6"/>
<path d="M30.9565 47.8411C30.707 47.8411 30.4997 47.783 30.3346 47.6668C30.1729 47.5467 30.0535 47.3665 29.9762 47.1263C29.8989 46.8822 29.8602 46.5722 29.8602 46.1964C29.8602 45.8129 29.8953 45.501 29.9656 45.2607C30.0394 45.0166 30.1571 44.8365 30.3188 44.7202C30.4804 44.604 30.693 44.5459 30.9565 44.5459C31.2095 44.5459 31.4414 44.6137 31.6522 44.7493C31.863 44.881 32.0317 45.0709 32.1582 45.3189C32.2847 45.5629 32.3479 45.8555 32.3479 46.1964C32.3479 46.5374 32.2847 46.8318 32.1582 47.0798C32.0317 47.3239 31.863 47.5118 31.6522 47.6435C31.4414 47.7753 31.2095 47.8411 30.9565 47.8411ZM29.0327 48.9105V44.604H30.1659V45.0341L30.1711 46.1964L30.2238 47.3588V48.9105H29.0327ZM30.6719 46.8183C30.7597 46.8183 30.8388 46.795 30.9091 46.7485C30.9793 46.702 31.0356 46.6323 31.0777 46.5393C31.1199 46.4463 31.141 46.332 31.141 46.1964C31.141 46.0569 31.1199 45.9407 31.0777 45.8477C31.0356 45.7547 30.9793 45.685 30.9091 45.6385C30.8388 45.592 30.7597 45.5688 30.6719 45.5688C30.584 45.5688 30.505 45.592 30.4347 45.6385C30.3644 45.685 30.3082 45.7547 30.266 45.8477C30.2239 45.9407 30.2028 46.0569 30.2028 46.1964C30.2028 46.332 30.2239 46.4463 30.266 46.5393C30.3082 46.6323 30.3644 46.702 30.4347 46.7485C30.505 46.795 30.584 46.8183 30.6719 46.8183Z" fill="#0E6FB6"/>
<path d="M34.219 47.8411C33.8923 47.8411 33.6024 47.7714 33.3494 47.6319C33.0999 47.4886 32.9031 47.2929 32.7591 47.0449C32.615 46.797 32.543 46.5122 32.543 46.1906C32.543 45.869 32.615 45.5843 32.7591 45.3363C32.9031 45.0883 33.0999 44.8946 33.3494 44.7551C33.6024 44.6156 33.8923 44.5459 34.219 44.5459C34.5458 44.5459 34.8357 44.6156 35.0887 44.7551C35.3417 44.8946 35.5385 45.0883 35.679 45.3363C35.8231 45.5843 35.8951 45.869 35.8951 46.1906C35.8951 46.5122 35.8231 46.797 35.679 47.0449C35.5385 47.2929 35.3417 47.4886 35.0887 47.6319C34.8357 47.7714 34.5458 47.8411 34.219 47.8411ZM34.219 46.8183C34.3069 46.8183 34.3859 46.795 34.4562 46.7485C34.5265 46.702 34.5827 46.6323 34.6249 46.5393C34.667 46.4425 34.6881 46.3262 34.6881 46.1906C34.6881 46.0511 34.667 45.9368 34.6249 45.8477C34.5827 45.7547 34.5265 45.685 34.4562 45.6385C34.3859 45.592 34.3069 45.5688 34.219 45.5688C34.1312 45.5688 34.0521 45.592 33.9819 45.6385C33.9116 45.685 33.8554 45.7547 33.8132 45.8477C33.771 45.9368 33.7499 46.0511 33.7499 46.1906C33.7499 46.3262 33.771 46.4425 33.8132 46.5393C33.8554 46.6323 33.9116 46.702 33.9819 46.7485C34.0521 46.795 34.1312 46.8183 34.219 46.8183Z" fill="#0E6FB6"/>
<path d="M38.2144 47.2198V45.6274H37.6189L37.6136 45.825C37.6102 45.9606 37.6031 46.0865 37.5926 46.2027C37.5855 46.3189 37.5697 46.4236 37.5451 46.5165C37.5205 46.6057 37.4836 46.6851 37.4344 46.7548C37.3888 46.8207 37.3237 46.8749 37.2394 46.9176L36.0746 46.7548C36.166 46.7548 36.2415 46.7296 36.3012 46.6793C36.361 46.625 36.4067 46.5514 36.4383 46.4584C36.4734 46.3616 36.498 46.2511 36.5121 46.1272C36.5296 46.0032 36.5402 45.8695 36.5437 45.7262L36.5806 44.6045H39.4004V47.2198H38.2144ZM35.9902 48.4112V46.7548H39.7851V48.4112H38.6835V47.7835H37.0918V48.4112H35.9902Z" fill="#0E6FB6"/>
<path d="M40.1328 47.7835V44.6045H41.3187V45.7203H42.1304V44.6045H43.3163V47.7835H42.1304V46.749H41.3187V47.7835H40.1328Z" fill="#0E6FB6"/>
<path d="M43.875 47.7835V44.6045H45.0609V46.04L46.057 44.6045H47.1533V47.7835H45.9674V46.3422L44.9766 47.7835H43.875Z" fill="#0E6FB6"/>
<path d="M47.7119 47.7828V44.6038H48.8978V46.0393L49.894 44.6038H50.9903V47.7828H49.8044V46.3415L48.8135 47.7828H47.7119ZM49.272 44.3422C48.9031 44.3422 48.6343 44.2609 48.4656 44.0982C48.3005 43.9316 48.2179 43.6739 48.2179 43.3252H48.9821C48.9821 43.4453 49.0015 43.5402 49.0401 43.61C49.0788 43.6758 49.1543 43.7088 49.2668 43.7088C49.3757 43.7088 49.4512 43.6758 49.4934 43.61C49.5391 43.5402 49.5619 43.4453 49.5619 43.3252H50.3367C50.3367 43.6739 50.2506 43.9316 50.0784 44.0982C49.9098 44.2609 49.641 44.3422 49.272 44.3422Z" fill="#0E6FB6"/>
<path d="M55.3229 47.876C55.3123 47.876 55.2842 47.876 55.2385 47.876C55.1929 47.876 55.1472 47.876 55.1015 47.876C55.0593 47.876 55.033 47.876 55.0224 47.876C54.3548 47.8644 53.8418 47.7171 53.4834 47.4343C53.125 47.1476 52.9458 46.7291 52.9458 46.179C52.9458 45.6365 53.1215 45.2297 53.4729 44.9585C53.8278 44.6834 54.3495 44.542 55.0382 44.5342C55.0453 44.5342 55.0699 44.5342 55.112 44.5342C55.1577 44.5342 55.2016 44.5342 55.2438 44.5342C55.2895 44.5342 55.3158 44.5342 55.3229 44.5342C56.0221 44.5342 56.5597 44.6718 56.9357 44.9469C57.3117 45.2181 57.4996 45.6288 57.4996 46.179C57.4996 46.7408 57.3117 47.165 56.9357 47.4517C56.5597 47.7346 56.0221 47.876 55.3229 47.876ZM55.2754 46.9694C55.553 46.9694 55.7709 46.9442 55.929 46.8938C56.0906 46.8396 56.2048 46.7543 56.2716 46.6381C56.3419 46.5219 56.377 46.3688 56.377 46.179C56.377 45.9969 56.3436 45.8535 56.2769 45.7489C56.2101 45.6404 56.0959 45.5629 55.9343 45.5164C55.7761 45.4661 55.5565 45.4409 55.2754 45.4409C55.2649 45.4409 55.2368 45.4409 55.1911 45.4409C55.1454 45.4409 55.1156 45.4409 55.1015 45.4409C54.8415 45.4409 54.6359 45.468 54.4848 45.5222C54.3337 45.5726 54.2266 45.652 54.1633 45.7605C54.1036 45.8651 54.0737 46.0046 54.0737 46.179C54.0737 46.3649 54.1036 46.516 54.1633 46.6323C54.2266 46.7446 54.332 46.8279 54.4796 46.8822C54.6307 46.9364 54.8362 46.9655 55.0962 46.9694C55.1103 46.9694 55.1401 46.9694 55.1858 46.9694C55.2315 46.9694 55.2614 46.9694 55.2754 46.9694ZM54.7062 48.9105V43.4707H55.7392V48.9105H54.7062Z" fill="#0E6FB6"/>
<path d="M59.3601 47.8411C59.0334 47.8411 58.7435 47.7714 58.4905 47.6319C58.241 47.4886 58.0442 47.2929 57.9002 47.0449C57.7561 46.797 57.6841 46.5122 57.6841 46.1906C57.6841 45.869 57.7561 45.5843 57.9002 45.3363C58.0442 45.0883 58.241 44.8946 58.4905 44.7551C58.7435 44.6156 59.0334 44.5459 59.3601 44.5459C59.6869 44.5459 59.9768 44.6156 60.2298 44.7551C60.4828 44.8946 60.6796 45.0883 60.8201 45.3363C60.9642 45.5843 61.0362 45.869 61.0362 46.1906C61.0362 46.5122 60.9642 46.797 60.8201 47.0449C60.6796 47.2929 60.4828 47.4886 60.2298 47.6319C59.9768 47.7714 59.6869 47.8411 59.3601 47.8411ZM59.3601 46.8183C59.448 46.8183 59.5271 46.795 59.5973 46.7485C59.6676 46.702 59.7238 46.6323 59.766 46.5393C59.8082 46.4425 59.8292 46.3262 59.8292 46.1906C59.8292 46.0511 59.8082 45.9368 59.766 45.8477C59.7238 45.7547 59.6676 45.685 59.5973 45.6385C59.5271 45.592 59.448 45.5688 59.3601 45.5688C59.2723 45.5688 59.1932 45.592 59.123 45.6385C59.0527 45.685 58.9965 45.7547 58.9543 45.8477C58.9121 45.9368 58.8911 46.0511 58.8911 46.1906C58.8911 46.3262 58.9121 46.4425 58.9543 46.5393C58.9965 46.6323 59.0527 46.702 59.123 46.7485C59.1932 46.795 59.2723 46.8183 59.3601 46.8183Z" fill="#0E6FB6"/>
<path d="M61.4053 47.7835V44.6045H62.5912V45.7203H63.4028V44.6045H64.5887V47.7835H63.4028V46.749H62.5912V47.7835H61.4053Z" fill="#0E6FB6"/>
<path d="M67.1607 47.2198V45.6274H66.5652L66.5599 45.825C66.5564 45.9606 66.5494 46.0865 66.5388 46.2027C66.5318 46.3189 66.516 46.4236 66.4914 46.5165C66.4668 46.6057 66.4299 46.6851 66.3807 46.7548C66.335 46.8207 66.27 46.8749 66.1857 46.9176L65.0209 46.7548C65.1123 46.7548 65.1878 46.7296 65.2475 46.6793C65.3073 46.625 65.3529 46.5514 65.3846 46.4584C65.4197 46.3616 65.4443 46.2511 65.4584 46.1272C65.4759 46.0032 65.4865 45.8695 65.49 45.7262L65.5269 44.6045H68.3467V47.2198H67.1607ZM64.9365 48.4112V46.7548H68.7314V48.4112H67.6298V47.7835H66.0381V48.4112H64.9365Z" fill="#0E6FB6"/>
<path d="M21.3958 54.6177L20.6685 53.4553L21.3958 52.293H22.4499L21.7489 53.4553L22.4499 54.6177H21.3958ZM22.7925 54.6177L22.0652 53.4553L22.7925 52.293H23.8467L23.1457 53.4553L23.8467 54.6177H22.7925Z" fill="#0E6FB6"/>
<path d="M26.6821 54.4665V52.043H25.8335L25.8229 52.3336C25.8159 52.5467 25.8036 52.7463 25.786 52.9322C25.7685 53.1182 25.7439 53.2887 25.7123 53.4437C25.6841 53.5986 25.6473 53.7362 25.6016 53.8563C25.5559 53.9725 25.4997 54.0694 25.4329 54.1469L24.1205 53.9841C24.2365 53.9841 24.3314 53.9415 24.4051 53.8563C24.4824 53.7672 24.5439 53.6451 24.5896 53.4902C24.6353 53.3313 24.6687 53.1453 24.6898 52.9322C24.7143 52.7153 24.7319 52.477 24.7425 52.2174L24.7846 50.9795H27.9049V54.4665H26.6821ZM24.0151 55.8439V53.9841H28.3898V55.8439H27.2513V55.0477H25.1536V55.8439H24.0151Z" fill="#0E6FB6"/>
<path d="M30.6878 55.1409C30.3856 55.1409 30.1062 55.0886 29.8497 54.984C29.5967 54.8794 29.3771 54.7321 29.1909 54.5423C29.0047 54.3486 28.8588 54.1219 28.7534 53.8623C28.6515 53.6027 28.6006 53.3199 28.6006 53.0138C28.6006 52.7038 28.6515 52.421 28.7534 52.1653C28.8588 51.9057 29.0047 51.681 29.1909 51.4911C29.3771 51.2974 29.5967 51.1482 29.8497 51.0436C30.1062 50.939 30.3838 50.8867 30.6825 50.8867C30.9847 50.8867 31.2623 50.939 31.5153 51.0436C31.7682 51.1482 31.9879 51.2974 32.1741 51.4911C32.3603 51.681 32.5044 51.9057 32.6063 52.1653C32.7117 52.421 32.7644 52.7038 32.7644 53.0138C32.7644 53.3199 32.7117 53.6027 32.6063 53.8623C32.5044 54.1219 32.3603 54.3486 32.1741 54.5423C31.9879 54.7321 31.7682 54.8794 31.5153 54.984C31.2623 55.0886 30.9864 55.1409 30.6878 55.1409ZM30.6825 54.0309C30.7985 54.0309 30.9057 54.0076 31.004 53.9611C31.1059 53.9146 31.1938 53.8488 31.2676 53.7635C31.3449 53.6744 31.4046 53.5679 31.4468 53.4439C31.4889 53.316 31.51 53.1727 31.51 53.0138C31.51 52.855 31.4889 52.7135 31.4468 52.5896C31.4046 52.4617 31.3449 52.3551 31.2676 52.2699C31.1938 52.1808 31.1059 52.113 31.004 52.0665C30.9057 52.02 30.7985 51.9968 30.6825 51.9968C30.5666 51.9968 30.4577 52.02 30.3558 52.0665C30.2574 52.113 30.1695 52.1808 30.0922 52.2699C30.0184 52.3551 29.9605 52.4617 29.9183 52.5896C29.8761 52.7135 29.855 52.855 29.855 53.0138C29.855 53.1727 29.8761 53.316 29.9183 53.4439C29.9605 53.5679 30.0184 53.6744 30.0922 53.7635C30.1695 53.8488 30.2574 53.9146 30.3558 53.9611C30.4577 54.0076 30.5666 54.0309 30.6825 54.0309Z" fill="#0E6FB6"/>
<path d="M33.2124 55.0477V50.9795H36.7806V55.0477H35.5578V51.7524L35.8266 52.043H34.1664L34.4352 51.7524V55.0477H33.2124Z" fill="#0E6FB6"/>
<path d="M39.3157 55.1409C39.0135 55.1409 38.7342 55.0886 38.4777 54.984C38.2247 54.8794 38.0051 54.7321 37.8188 54.5423C37.6326 54.3486 37.4868 54.1219 37.3814 53.8623C37.2795 53.6027 37.2285 53.3199 37.2285 53.0138C37.2285 52.7038 37.2795 52.421 37.3814 52.1653C37.4868 51.9057 37.6326 51.681 37.8188 51.4911C38.0051 51.2974 38.2247 51.1482 38.4777 51.0436C38.7342 50.939 39.0117 50.8867 39.3104 50.8867C39.6126 50.8867 39.8902 50.939 40.1432 51.0436C40.3962 51.1482 40.6158 51.2974 40.802 51.4911C40.9882 51.681 41.1323 51.9057 41.2342 52.1653C41.3396 52.421 41.3923 52.7038 41.3923 53.0138C41.3923 53.3199 41.3396 53.6027 41.2342 53.8623C41.1323 54.1219 40.9882 54.3486 40.802 54.5423C40.6158 54.7321 40.3962 54.8794 40.1432 54.984C39.8902 55.0886 39.6144 55.1409 39.3157 55.1409ZM39.3105 54.0309C39.4264 54.0309 39.5336 54.0076 39.632 53.9611C39.7339 53.9146 39.8217 53.8488 39.8955 53.7635C39.9728 53.6744 40.0325 53.5679 40.0747 53.4439C40.1169 53.316 40.1379 53.1727 40.1379 53.0138C40.1379 52.855 40.1169 52.7135 40.0747 52.5896C40.0325 52.4617 39.9728 52.3551 39.8955 52.2699C39.8217 52.1808 39.7339 52.113 39.632 52.0665C39.5336 52.02 39.4264 51.9968 39.3105 51.9968C39.1945 51.9968 39.0856 52.02 38.9837 52.0665C38.8853 52.113 38.7975 52.1808 38.7201 52.2699C38.6464 52.3551 38.5884 52.4617 38.5462 52.5896C38.5041 52.7135 38.483 52.855 38.483 53.0138C38.483 53.1727 38.5041 53.316 38.5462 53.4439C38.5884 53.5679 38.6464 53.6744 38.7201 53.7635C38.7975 53.8488 38.8853 53.9146 38.9837 53.9611C39.0856 54.0076 39.1945 54.0309 39.3105 54.0309Z" fill="#0E6FB6"/>
<path d="M41.8403 55.0477V50.9795H42.8628L44.3386 53.6354H43.801L45.2346 50.9795H46.2571L46.2677 55.0477H45.1345L45.1239 52.8625H45.3031L44.3228 54.6815H43.7747L42.7522 52.8625H42.9735V55.0477H41.8403Z" fill="#0E6FB6"/>
<path d="M48.7976 55.1409C48.4954 55.1409 48.2161 55.0886 47.9596 54.984C47.7066 54.8794 47.487 54.7321 47.3008 54.5423C47.1145 54.3486 46.9687 54.1219 46.8633 53.8623C46.7614 53.6027 46.7104 53.3199 46.7104 53.0138C46.7104 52.7038 46.7614 52.421 46.8633 52.1653C46.9687 51.9057 47.1145 51.681 47.3008 51.4911C47.487 51.2974 47.7066 51.1482 47.9596 51.0436C48.2161 50.939 48.4937 50.8867 48.7924 50.8867C49.0945 50.8867 49.3721 50.939 49.6251 51.0436C49.8781 51.1482 50.0977 51.2974 50.2839 51.4911C50.4702 51.681 50.6142 51.9057 50.7161 52.1653C50.8216 52.421 50.8743 52.7038 50.8743 53.0138C50.8743 53.3199 50.8216 53.6027 50.7161 53.8623C50.6142 54.1219 50.4702 54.3486 50.2839 54.5423C50.0977 54.7321 49.8781 54.8794 49.6251 54.984C49.3721 55.0886 49.0963 55.1409 48.7976 55.1409ZM48.7924 54.0309C48.9084 54.0309 49.0155 54.0076 49.1139 53.9611C49.2158 53.9146 49.3036 53.8488 49.3774 53.7635C49.4547 53.6744 49.5145 53.5679 49.5566 53.4439C49.5988 53.316 49.6199 53.1727 49.6199 53.0138C49.6199 52.855 49.5988 52.7135 49.5566 52.5896C49.5145 52.4617 49.4547 52.3551 49.3774 52.2699C49.3036 52.1808 49.2158 52.113 49.1139 52.0665C49.0155 52.02 48.9084 51.9968 48.7924 51.9968C48.6764 51.9968 48.5675 52.02 48.4656 52.0665C48.3672 52.113 48.2794 52.1808 48.2021 52.2699C48.1283 52.3551 48.0703 52.4617 48.0282 52.5896C47.986 52.7135 47.9649 52.855 47.9649 53.0138C47.9649 53.1727 47.986 53.316 48.0282 53.4439C48.0703 53.5679 48.1283 53.6744 48.2021 53.7635C48.2794 53.8488 48.3672 53.9146 48.4656 53.9611C48.5675 54.0076 48.6764 54.0309 48.7924 54.0309Z" fill="#0E6FB6"/>
<path d="M51.3223 55.0477V50.9795H54.1315V52.043H52.2763L52.5451 51.7466V55.0477H51.3223Z" fill="#0E6FB6"/>
<path d="M53.4941 55.0477L55.107 50.9795H56.3298L57.9426 55.0477H56.6565L55.4654 51.6304H55.9503L54.7591 55.0477H53.4941ZM54.4534 54.3387L54.7696 53.3507H56.4668L56.783 54.3387H54.4534Z" fill="#0E6FB6"/>
<path d="M1.31982 62.3123V58.2441H4.88805V62.3123H3.66526V59.0171L3.93407 59.3077H2.27381L2.54261 59.0171V62.3123H1.31982Z" fill="#0E6FB6"/>
<path d="M7.42311 62.4055C7.12093 62.4055 6.84159 62.3532 6.58508 62.2486C6.33209 62.144 6.11248 61.9968 5.92625 61.8069C5.74002 61.6132 5.5942 61.3866 5.48879 61.127C5.38689 60.8674 5.33594 60.5845 5.33594 60.2785C5.33594 59.9685 5.38689 59.6857 5.48879 59.4299C5.5942 59.1704 5.74002 58.9456 5.92625 58.7558C6.11248 58.5621 6.33209 58.4129 6.58508 58.3083C6.84159 58.2037 7.11917 58.1514 7.41784 58.1514C7.72003 58.1514 7.99761 58.2037 8.25061 58.3083C8.5036 58.4129 8.72321 58.5621 8.90944 58.7558C9.09567 58.9456 9.23973 59.1704 9.34163 59.4299C9.44704 59.6857 9.49975 59.9685 9.49975 60.2785C9.49975 60.5845 9.44704 60.8674 9.34163 61.127C9.23973 61.3866 9.09567 61.6132 8.90944 61.8069C8.72321 61.9968 8.5036 62.144 8.25061 62.2486C7.99761 62.3532 7.72178 62.4055 7.42311 62.4055ZM7.41784 61.2955C7.5338 61.2955 7.64097 61.2723 7.73935 61.2258C7.84125 61.1793 7.92909 61.1134 8.00288 61.0282C8.08019 60.9391 8.13992 60.8325 8.18208 60.7085C8.22425 60.5807 8.24533 60.4373 8.24533 60.2785C8.24533 60.1196 8.22425 59.9782 8.18208 59.8542C8.13992 59.7263 8.08019 59.6198 8.00288 59.5346C7.92909 59.4454 7.84125 59.3776 7.73935 59.3311C7.64097 59.2847 7.5338 59.2614 7.41784 59.2614C7.30189 59.2614 7.19296 59.2847 7.09106 59.3311C6.99268 59.3776 6.90483 59.4454 6.82753 59.5346C6.75374 59.6198 6.69576 59.7263 6.6536 59.8542C6.61143 59.9782 6.59035 60.1196 6.59035 60.2785C6.59035 60.4373 6.61143 60.5807 6.6536 60.7085C6.69576 60.8325 6.75374 60.9391 6.82753 61.0282C6.90483 61.1134 6.99268 61.1793 7.09106 61.2258C7.19296 61.2723 7.30189 61.2955 7.41784 61.2955Z" fill="#0E6FB6"/>
<path d="M11.8031 62.4055C11.508 62.4055 11.2339 62.3552 10.9809 62.2544C10.7314 62.1498 10.5136 62.0026 10.3273 61.8127C10.1446 61.6229 10.0023 61.3982 9.90041 61.1386C9.79851 60.879 9.74756 60.5923 9.74756 60.2785C9.74756 59.9646 9.79851 59.6779 9.90041 59.4183C10.0023 59.1587 10.1446 58.934 10.3273 58.7442C10.5136 58.5543 10.7314 58.409 10.9809 58.3083C11.2339 58.2037 11.508 58.1514 11.8031 58.1514C12.165 58.1514 12.4848 58.2211 12.7624 58.3606C13.0435 58.5001 13.2754 58.7015 13.4581 58.965L12.6728 59.738C12.5638 59.5869 12.4426 59.4706 12.3091 59.3893C12.1791 59.304 12.0315 59.2614 11.8664 59.2614C11.7363 59.2614 11.6186 59.2847 11.5132 59.3311C11.4078 59.3776 11.3165 59.4454 11.2392 59.5346C11.1654 59.6237 11.1074 59.7321 11.0652 59.86C11.0231 59.984 11.002 60.1235 11.002 60.2785C11.002 60.4334 11.0231 60.5748 11.0652 60.7027C11.1074 60.8267 11.1654 60.9332 11.2392 61.0223C11.3165 61.1115 11.4078 61.1793 11.5132 61.2258C11.6186 61.2722 11.7363 61.2955 11.8664 61.2955C12.0315 61.2955 12.1791 61.2548 12.3091 61.1735C12.4426 61.0882 12.5638 60.97 12.6728 60.8189L13.4581 61.5919C13.2754 61.8515 13.0435 62.053 12.7624 62.1963C12.4848 62.3358 12.165 62.4055 11.8031 62.4055Z" fill="#0E6FB6"/>
<path d="M14.644 62.3123V59.0113L14.9128 59.3077H13.5635V58.2441H16.9472V59.3077H15.5979L15.8667 59.0113V62.3123H14.644Z" fill="#0E6FB6"/>
<path d="M17.3584 62.3123V58.2441H19.1346C19.479 58.2441 19.7759 58.3061 20.0253 58.4301C20.2783 58.5541 20.4734 58.7323 20.6104 58.9648C20.7474 59.1934 20.8159 59.4646 20.8159 59.7784C20.8159 60.0923 20.7474 60.3635 20.6104 60.5921C20.4734 60.8207 20.2783 60.9989 20.0253 61.1267C19.7759 61.2507 19.479 61.3127 19.1346 61.3127H18.0489L18.6023 60.7257V62.3123H17.3584ZM18.6023 60.8768L18.0489 60.255H19.0555C19.2277 60.255 19.3542 60.2124 19.435 60.1271C19.5194 60.0419 19.5615 59.9257 19.5615 59.7784C19.5615 59.6312 19.5194 59.515 19.435 59.4297C19.3542 59.3445 19.2277 59.3019 19.0555 59.3019H18.0489L18.6023 58.68V60.8768Z" fill="#0E6FB6"/>
<path d="M20.6948 62.3123L22.3076 58.2441H23.5304L25.1433 62.3123H23.8572L22.666 58.8951H23.1509L21.9598 62.3123H20.6948ZM21.6541 61.6033L21.9703 60.6153H23.6675L23.9837 61.6033H21.6541Z" fill="#0E6FB6"/>
<path d="M29.4969 62.3123L28.7063 60.4061L29.7499 59.7668L30.9253 62.3123H29.4969ZM28.2056 60.842V59.761H29.4337V60.842H28.2056ZM29.8184 60.4235L28.6694 60.2957L29.576 58.2441H30.8726L29.8184 60.4235ZM26.4083 62.3123H24.98L26.1606 59.7668L27.2042 60.4061L26.4083 62.3123ZM28.564 62.3123H27.3518V58.2441H28.564V62.3123ZM27.7102 60.842H26.4716V59.761H27.7102V60.842ZM26.0921 60.4235L25.0327 58.2441H26.3293L27.22 60.2957L26.0921 60.4235Z" fill="#0E6FB6"/>
<path d="M33.7133 61.7312V59.3077H32.8648L32.8542 59.5983C32.8472 59.8114 32.8349 60.0109 32.8173 60.1969C32.7997 60.3829 32.7751 60.5533 32.7435 60.7083C32.7154 60.8633 32.6785 61.0008 32.6328 61.1209C32.5871 61.2372 32.5309 61.334 32.4642 61.4115L31.1518 61.2488C31.2677 61.2488 31.3626 61.2062 31.4364 61.1209C31.5137 61.0318 31.5752 60.9098 31.6209 60.7548C31.6665 60.596 31.6999 60.41 31.721 60.1969C31.7456 59.9799 31.7632 59.7416 31.7737 59.482L31.8159 58.2441H34.9361V61.7312H33.7133ZM31.0464 63.1085V61.2488H35.421V63.1085H34.2826V62.3123H32.1848V63.1085H31.0464Z" fill="#0E6FB6"/>
<path d="M35.5791 62.3123L37.1919 58.2441H38.4147L40.0275 62.3123H38.7415L37.5503 58.8951H38.0352L36.8441 62.3123H35.5791ZM36.5384 61.6033L36.8546 60.6153H38.5517L38.868 61.6033H36.5384Z" fill="#0E6FB6"/>
<path d="M40.697 62.3879C40.6197 62.3879 40.5371 62.3821 40.4493 62.3705C40.3614 62.3588 40.2683 62.3395 40.1699 62.3123L40.2332 61.2139C40.2824 61.2255 40.328 61.2314 40.3702 61.2314C40.5072 61.2314 40.6091 61.1694 40.6759 61.0454C40.7427 60.9214 40.7883 60.7548 40.8129 60.5456C40.8375 60.3325 40.8533 60.0942 40.8604 59.8307L40.9078 58.2441H44.0228V62.3123H42.8V59.0171L43.0688 59.3077H41.7248L41.9672 58.9997L41.9461 59.7784C41.9356 60.1698 41.911 60.5262 41.8724 60.8478C41.8372 61.1655 41.7757 61.4406 41.6879 61.6731C41.6 61.9016 41.4753 62.0779 41.3137 62.2019C41.1555 62.3259 40.95 62.3879 40.697 62.3879Z" fill="#0E6FB6"/>
<path d="M44.6763 62.3123V58.2441H45.8991V60.3596L47.1693 58.2441H48.3394V62.3123H47.1166V60.2027L45.8516 62.3123H44.6763Z" fill="#0E6FB6"/>
<path d="M48.9927 62.3123V58.2441H50.0152L51.491 60.9001H50.9534L52.387 58.2441H53.4095L53.42 62.3123H52.2869L52.2763 60.1271H52.4555L51.4752 61.9462H50.927L49.9045 60.1271H50.1259V62.3123H48.9927Z" fill="#0E6FB6"/>
<path d="M58.0795 61.7312V59.3077H57.231L57.2204 59.5983C57.2134 59.8114 57.2011 60.0109 57.1835 60.1969C57.1659 60.3829 57.1413 60.5533 57.1097 60.7083C57.0816 60.8633 57.0447 61.0008 56.999 61.1209C56.9534 61.2372 56.8971 61.334 56.8304 61.4115L55.518 61.2488C55.6339 61.2488 55.7288 61.2062 55.8026 61.1209C55.8799 61.0318 55.9414 60.9098 55.9871 60.7548C56.0328 60.596 56.0661 60.41 56.0872 60.1969C56.1118 59.9799 56.1294 59.7416 56.1399 59.482L56.1821 58.2441H59.3023V61.7312H58.0795ZM55.4126 63.1085V61.2488H59.7872V63.1085H58.6488V62.3123H56.5511V63.1085H55.4126Z" fill="#0E6FB6"/>
<path d="M60.2036 62.3123V58.2441H61.4264V62.3123H60.2036Z" fill="#0E6FB6"/>
<path d="M62.9179 62.3123V59.0113L63.1867 59.3077H61.8374V58.2441H65.2212V59.3077H63.8719L64.1407 59.0113V62.3123H62.9179Z" fill="#0E6FB6"/>
<path d="M67.4876 62.3123V61.0744L67.7775 61.3476H66.9289C66.5881 61.3476 66.2929 61.2875 66.0434 61.1674C65.7975 61.0435 65.6077 60.8672 65.4742 60.6386C65.3407 60.41 65.2739 60.1368 65.2739 59.8191C65.2739 59.4937 65.3424 59.2147 65.4795 58.9822C65.62 58.7459 65.8186 58.5638 66.0751 58.4359C66.3316 58.3081 66.6338 58.2441 66.9816 58.2441H68.7104V62.3123H67.4876ZM65.2897 62.3123L66.2174 60.8304H67.456L66.5916 62.3123H65.2897ZM67.4876 60.6444V58.9706L67.7775 59.3019H67.0027C66.8446 59.3019 66.7251 59.3426 66.6443 59.4239C66.567 59.5053 66.5283 59.6293 66.5283 59.7959C66.5283 59.9663 66.5687 60.0961 66.6496 60.1853C66.7304 60.2705 66.8481 60.3131 67.0027 60.3131H67.7775L67.4876 60.6444Z" fill="#0E6FB6"/>
<path d="M69.3638 62.3123V58.2441H70.3863L71.8621 60.9001H71.3244L72.7581 58.2441H73.7806L73.7911 62.3123H72.6579L72.6474 60.1271H72.8266L71.8462 61.9462H71.2981L70.2756 60.1271H70.497V62.3123H69.3638Z" fill="#0E6FB6"/>
<path d="M75.246 61.8823H74.1919L74.8929 60.72L74.1919 59.5576H75.246L75.9734 60.72L75.246 61.8823ZM76.6427 61.8823H75.5886L76.2896 60.72L75.5886 59.5576H76.6427L77.3701 60.72L76.6427 61.8823Z" fill="#0E6FB6"/>
</svg>
